<svg width="24" height="24" viewBox="0 0 24 24" fill="none" xmlns="http://www.w3.org/2000/svg">
<path d="M18.4699 7.91494C18.4699 10.3121 16.4025 12.2554 13.8524 12.2554V13.7873C17.3026 13.7873 20.0995 11.1581 20.0995 7.91494H18.4699ZM13.8524 12.2554C11.3022 12.2554 9.23492 10.3121 9.23492 7.91494H7.60522C7.60522 11.1581 10.4022 13.7873 13.8524 13.7873V12.2554ZM9.23492 7.91494C9.23492 5.51779 11.3022 3.57452 13.8524 3.57452V2.0426C10.4022 2.0426 7.60522 4.67174 7.60522 7.91494H9.23492ZM13.8524 3.57452C16.4025 3.57452 18.4699 5.51779 18.4699 7.91494H20.0995C20.0995 4.67174 17.3026 2.0426 13.8524 2.0426V3.57452Z" fill="#A1A8B0"/>
<path d="M22.3703 23.234C22.3703 23.657 22.7351 23.9999 23.1851 23.9999C23.6351 23.9999 24 23.657 24 23.234H22.3703ZM3.70483 23.234C3.70483 23.657 4.06965 23.9999 4.51968 23.9999C4.96971 23.9999 5.33453 23.657 5.33453 23.234H3.70483ZM24 23.234C24 18.7191 19.2879 15.3191 13.8524 15.3191V16.851C18.7166 16.851 22.3703 19.8442 22.3703 23.234H24ZM13.8524 15.3191C8.41695 15.3191 3.70483 18.7191 3.70483 23.234H5.33453C5.33453 19.8442 8.98816 16.851 13.8524 16.851V15.3191Z" fill="#A1A8B0"/>
</svg>
