<svg width="16" height="16" viewBox="0 0 16 16" fill="none" xmlns="http://www.w3.org/2000/svg">
<path d="M3.78898 7.55341C3.5322 7.30677 3.11587 7.30677 2.85909 7.55341C2.60231 7.80006 2.60231 8.19996 2.85909 8.4466L3.78898 7.55341ZM6.83087 11.3684L6.36592 11.815C6.49655 11.9405 6.67611 12.0074 6.86067 11.9994C7.04522 11.9913 7.21773 11.9091 7.336 11.7727L6.83087 11.3684ZM13.1807 5.03592C13.4132 4.76796 13.3755 4.36971 13.0965 4.1464C12.8176 3.9231 12.403 3.9593 12.1705 4.22727L13.1807 5.03592ZM2.85909 8.4466L6.36592 11.815L7.29581 10.9218L3.78898 7.55341L2.85909 8.4466ZM7.336 11.7727L13.1807 5.03592L12.1705 4.22727L6.32574 10.9641L7.336 11.7727Z" fill="#13B97D"/>
</svg>
