<svg width="196" height="138" viewBox="0 0 196 138" fill="none" xmlns="http://www.w3.org/2000/svg">
<g clip-path="url(#clip0_3_10596)">
<path d="M86.0036 61.4311C97.3171 50.1175 97.3171 31.7905 86.0036 20.477C84.0454 18.5189 81.8698 16.9063 79.5533 15.6137C77.7743 14.6282 75.765 16.0232 75.765 18.0453L75.765 37.7033C75.765 38.4712 75.4579 39.2135 74.9204 39.751L67.5742 47.0971C66.448 48.2234 64.6051 48.2234 63.4788 47.0971L56.1327 39.751C55.5952 39.2135 55.288 38.4712 55.288 37.7033L55.288 18.0453C55.288 16.0232 53.2659 14.641 51.4998 15.6137C49.1833 16.9063 47.0076 18.5189 45.0495 20.477C33.7359 31.7905 33.7359 50.1175 45.0495 61.4311C47.4939 63.8755 50.2839 65.7952 53.2403 67.1902L53.2403 113.673C53.2403 116.924 54.5329 120.059 56.8366 122.363C61.6359 127.162 69.4172 127.162 74.2165 122.363C76.5201 120.059 77.8127 116.924 77.8127 113.673L77.8127 67.1902C80.7819 65.808 83.5591 63.8755 86.0036 61.4311ZM68.5981 113.648C66.8959 115.35 64.1571 115.35 62.455 113.648C60.7528 111.945 60.7528 109.207 62.455 107.504C64.1571 105.802 66.8959 105.802 68.5981 107.504C70.3002 109.207 70.3002 111.945 68.5981 113.648Z" fill="#227DDE"/>
</g>
<g clip-path="url(#clip1_3_10596)">
<path d="M125.469 14.9009C123.311 14.9009 121.484 16.4999 121.192 18.6446L118.146 41.9954C117.968 43.3152 118.425 44.6604 119.364 45.5995L126.23 52.4651L126.23 74.1915C127.613 73.8742 129.06 73.7219 130.532 73.7219C132.004 73.7219 133.464 73.8869 134.834 74.1915L134.847 52.4778L141.713 45.6122C142.664 44.6604 143.109 43.3279 142.931 42.008L139.885 18.6573C139.606 16.4999 137.779 14.9009 135.608 14.9136L125.469 14.9009ZM116.687 93.3289L116.687 121.756C116.687 124.929 119.263 127.505 122.436 127.505L138.68 127.505C141.852 127.505 144.428 124.929 144.428 121.756L144.428 93.3289C144.428 85.6638 138.223 79.4581 130.558 79.4581C122.892 79.4581 116.687 85.6638 116.687 93.3289Z" fill="#227DDE"/>
</g>
<defs>
<clipPath id="clip0_3_10596">
<rect width="92.601" height="92.601" fill="white" transform="translate(0 65.5265) scale(1.00073) rotate(-45)"/>
</clipPath>
<clipPath id="clip1_3_10596">
<rect width="91.823" height="91.823" fill="white" transform="translate(65.569 73.0241) scale(1.00073) rotate(-45)"/>
</clipPath>
</defs>
</svg>
