<svg width="40" height="40" viewBox="0 0 40 40" fill="none" xmlns="http://www.w3.org/2000/svg">
<path d="M18.9093 28.6268C19.346 28.9797 20.054 28.9797 20.4906 28.6268C20.9273 28.2739 20.9273 27.7019 20.4906 27.349L18.9093 28.6268ZM9.97919 20.1325L10.7699 19.4936L9.97919 20.1325ZM9.97919 16.759L10.7699 17.398L9.97919 16.759ZM20.4906 9.54256C20.9273 9.18968 20.9273 8.61754 20.4906 8.26466C20.054 7.91178 19.346 7.91178 18.9093 8.26466L20.4906 9.54256ZM20.4906 27.349L10.7699 19.4936L9.18851 20.7715L18.9093 28.6268L20.4906 27.349ZM10.7699 19.4936C10.0585 18.9187 10.0585 17.9728 10.7699 17.398L9.18851 16.1201C7.60383 17.4007 7.60383 19.4909 9.18851 20.7715L10.7699 19.4936ZM10.7699 17.398L20.4906 9.54256L18.9093 8.26466L9.18851 16.1201L10.7699 17.398Z" fill="#101623"/>
</svg>
