<svg width="24" height="24" viewBox="0 0 24 24" fill="none" xmlns="http://www.w3.org/2000/svg">
<path d="M14.4871 8.9673L15.0656 9.54584C15.3851 9.22632 15.3851 8.70828 15.0656 8.38876L14.4871 8.9673ZM8.96705 14.4873L8.38851 15.0658C8.70803 15.3854 9.22608 15.3854 9.5456 15.0658L8.96705 14.4873ZM13.9085 8.38876L8.38851 13.9088L9.5456 15.0658L15.0656 9.54584L13.9085 8.38876ZM9.5456 13.9088C8.98294 13.3461 8.63978 12.5806 8.63978 11.7273H7.00342C7.00342 13.034 7.53299 14.2103 8.38851 15.0658L9.5456 13.9088ZM8.63978 11.7273C8.63978 10.0192 10.0189 8.64003 11.7271 8.64003V7.00366C9.11519 7.00366 7.00342 9.11543 7.00342 11.7273H8.63978ZM11.7271 8.64003C12.5804 8.64003 13.3459 8.98318 13.9085 9.54584L15.0656 8.38876C14.2101 7.53323 13.0338 7.00366 11.7271 7.00366V8.64003Z" fill="#A1A8B0"/>
<path d="M17.5835 5.58405C17.9442 5.85615 18.4572 5.78429 18.7294 5.42354C19.0015 5.06279 18.9296 4.54976 18.5688 4.27764L17.5835 5.58405ZM1.78892 8.90175L2.47858 9.34197L2.47927 9.34089L1.78892 8.90175ZM1.78892 14.5636L2.47896 14.1239L2.47858 14.1234L1.78892 14.5636ZM4.2118 18.642C4.5544 18.9367 5.07099 18.8979 5.36562 18.5552C5.66025 18.2127 5.62137 17.696 5.27877 17.4015L4.2118 18.642ZM18.5688 4.27764C16.5331 2.74205 14.1812 1.88721 11.7271 1.88721V3.52357C13.7894 3.52357 15.8011 4.23963 17.5835 5.58405L18.5688 4.27764ZM11.7271 1.88721C7.52912 1.88721 3.70686 4.36226 1.09857 8.46262L2.47927 9.34089C4.86735 5.5867 8.22327 3.52357 11.7271 3.52357V1.88721ZM1.09926 8.46154C0.504258 9.39371 0.234375 10.588 0.234375 11.7327C0.234375 12.8773 0.504258 14.0716 1.09926 15.0038L2.47858 14.1234C2.09176 13.5173 1.87074 12.6499 1.87074 11.7327C1.87074 10.8155 2.09176 9.94798 2.47858 9.34197L1.09926 8.46154ZM1.09888 15.0032C2.00022 16.418 3.05535 17.6476 4.2118 18.642L5.27877 17.4015C4.2534 16.5196 3.30126 15.4146 2.47896 14.1239L1.09888 15.0032Z" fill="#A1A8B0"/>
<path d="M8.13931 19.1878C7.72285 19.0124 7.2431 19.2079 7.06775 19.6244C6.8924 20.0408 7.08785 20.5206 7.50431 20.6959L8.13931 19.1878ZM21.6654 14.5528L20.9758 14.1126L20.9751 14.1136L21.6654 14.5528ZM21.6654 8.89096L20.9747 9.32937L20.9758 9.33118L21.6654 8.89096ZM21.1466 6.77452C20.8634 6.42242 20.3484 6.36658 19.9962 6.64979C19.6442 6.933 19.5884 7.44803 19.8716 7.80013L21.1466 6.77452ZM7.50431 20.6959C8.84162 21.259 10.2692 21.5673 11.7273 21.5673V19.931C10.5017 19.931 9.28927 19.672 8.13931 19.1878L7.50431 20.6959ZM11.7273 21.5673C15.9252 21.5673 19.7475 19.0923 22.3558 14.9919L20.9751 14.1136C18.587 17.8678 15.2311 19.931 11.7273 19.931V21.5673ZM22.3551 14.993C22.9501 14.0608 23.22 12.8665 23.22 11.7219C23.22 10.5772 22.9501 9.38292 22.3551 8.45075L20.9758 9.33118C21.3626 9.93719 21.5836 10.8047 21.5836 11.7219C21.5836 12.6391 21.3626 13.5066 20.9758 14.1126L22.3551 14.993ZM22.3562 8.45256C21.9768 7.85466 21.5654 7.29518 21.1466 6.77452L19.8716 7.80013C20.26 8.28311 20.6341 8.79273 20.9747 9.32937L22.3562 8.45256Z" fill="#A1A8B0"/>
<path d="M16.3609 12.6394C16.4429 12.195 16.1491 11.7684 15.7047 11.6864C15.2603 11.6045 14.8336 11.8983 14.7517 12.3427L16.3609 12.6394ZM12.3316 14.7628C11.8872 14.8447 11.5934 15.2714 11.6753 15.7158C11.7573 16.1602 12.1839 16.454 12.6283 16.372L12.3316 14.7628ZM14.7517 12.3427C14.5296 13.5472 13.5361 14.5407 12.3316 14.7628L12.6283 16.372C14.5002 16.0269 16.0158 14.5113 16.3609 12.6394L14.7517 12.3427Z" fill="#A1A8B0"/>
<path d="M9.54581 15.0658C9.86533 14.7463 9.86533 14.2282 9.54581 13.9087C9.2263 13.5892 8.70825 13.5892 8.38873 13.9087L9.54581 15.0658ZM0.23964 22.0578C-0.0798799 22.3773 -0.0798799 22.8954 0.23964 23.2149C0.559159 23.5344 1.0772 23.5344 1.39672 23.2149L0.23964 22.0578ZM8.38873 13.9087L0.23964 22.0578L1.39672 23.2149L9.54581 15.0658L8.38873 13.9087Z" fill="#A1A8B0"/>
<path d="M23.2148 1.39672C23.5343 1.0772 23.5343 0.559159 23.2148 0.23964C22.8952 -0.0798799 22.3772 -0.0798799 22.0577 0.23964L23.2148 1.39672ZM13.9086 8.38873C13.5891 8.70825 13.5891 9.2263 13.9086 9.54581C14.2281 9.86533 14.7461 9.86533 15.0657 9.54581L13.9086 8.38873ZM22.0577 0.23964L13.9086 8.38873L15.0657 9.54581L23.2148 1.39672L22.0577 0.23964Z" fill="#A1A8B0"/>
</svg>
