<svg width="24" height="24" viewBox="0 0 24 24" fill="none" xmlns="http://www.w3.org/2000/svg">
<path d="M6.12744 10.9787C6.12744 11.4017 6.47037 11.7447 6.8934 11.7447C7.31643 11.7447 7.65936 11.4017 7.65936 10.9787H6.12744ZM18.3828 10.9787C18.3828 11.4017 18.7257 11.7447 19.1487 11.7447C19.5717 11.7447 19.9147 11.4017 19.9147 10.9787H18.3828ZM7.65936 10.9787V8.93616H6.12744V10.9787H7.65936ZM7.65936 8.93616C7.65936 7.29177 7.91499 5.98377 8.63883 5.08517C9.33386 4.22234 10.599 3.57446 13.0211 3.57446V2.04254C10.3368 2.04254 8.53804 2.76828 7.44583 4.12417C6.38245 5.44429 6.12744 7.20012 6.12744 8.93616H7.65936ZM13.0211 3.57446C15.4432 3.57446 16.7083 4.22234 17.4033 5.08517C18.1271 5.98377 18.3828 7.29177 18.3828 8.93616H19.9147C19.9147 7.20012 19.6597 5.44429 18.5963 4.12417C17.5041 2.76828 15.7053 2.04254 13.0211 2.04254V3.57446ZM18.3828 8.93616V10.9787H19.9147V8.93616H18.3828Z" fill="#A1A8B0"/>
<path d="M18.1276 22.4681H7.91482V24H18.1276V22.4681ZM7.91482 22.4681C5.86679 22.4681 4.8937 22.1936 4.37133 21.6712C3.84896 21.1488 3.5744 20.1757 3.5744 18.1277H2.04248C2.04248 20.1647 2.27856 21.7448 3.2881 22.7544C4.29764 23.7639 5.87774 24 7.91482 24V22.4681ZM3.5744 18.1277V16.0851H2.04248V18.1277H3.5744ZM3.5744 16.0851C3.5744 14.0371 3.84896 13.064 4.37133 12.5416C4.8937 12.0192 5.86679 11.7447 7.91482 11.7447V10.2128C5.87774 10.2128 4.29764 10.4489 3.2881 11.4584C2.27856 12.4679 2.04248 14.048 2.04248 16.0851H3.5744ZM7.91482 11.7447H18.1276V10.2128H7.91482V11.7447ZM18.1276 11.7447C20.1757 11.7447 21.1487 12.0192 21.6711 12.5416C22.1935 13.064 22.468 14.0371 22.468 16.0851H23.9999C23.9999 14.048 23.7638 12.4679 22.7543 11.4584C21.7447 10.4489 20.1646 10.2128 18.1276 10.2128V11.7447ZM22.468 16.0851V18.1277H23.9999V16.0851H22.468ZM22.468 18.1277C22.468 20.1757 22.1935 21.1488 21.6711 21.6712C21.1487 22.1936 20.1757 22.4681 18.1276 22.4681V24C20.1646 24 21.7447 23.7639 22.7543 22.7544C23.7638 21.7448 23.9999 20.1647 23.9999 18.1277H22.468Z" fill="#A1A8B0"/>
<path d="M16.8528 15.8298C16.2888 15.8298 15.8315 16.287 15.8315 16.851C15.8315 17.4151 16.2888 17.8723 16.8528 17.8723V15.8298ZM16.862 17.8723C17.426 17.8723 17.8833 17.4151 17.8833 16.851C17.8833 16.287 17.426 15.8298 16.862 15.8298V17.8723ZM16.8528 17.8723H16.862V15.8298H16.8528V17.8723Z" fill="#A1A8B0"/>
<path d="M12.7669 15.8298C12.2028 15.8298 11.7456 16.287 11.7456 16.851C11.7456 17.4151 12.2028 17.8723 12.7669 17.8723V15.8298ZM12.7761 17.8723C13.3401 17.8723 13.7973 17.4151 13.7973 16.851C13.7973 16.287 13.3401 15.8298 12.7761 15.8298V17.8723ZM12.7669 17.8723H12.7761V15.8298H12.7669V17.8723Z" fill="#A1A8B0"/>
<path d="M8.68094 15.8298C8.11691 15.8298 7.65967 16.287 7.65967 16.851C7.65967 17.4151 8.11691 17.8723 8.68094 17.8723V15.8298ZM8.69012 17.8723C9.25415 17.8723 9.7114 17.4151 9.7114 16.851C9.7114 16.287 9.25415 15.8298 8.69012 15.8298V17.8723ZM8.68094 17.8723H8.69012V15.8298H8.68094V17.8723Z" fill="#A1A8B0"/>
</svg>
