<svg width="36" height="36" viewBox="0 0 36 36" fill="none" xmlns="http://www.w3.org/2000/svg">
<circle cx="18" cy="18" r="18" fill="#EDF5FC"/>
<path d="M11.2521 14.9661C10.8756 14.9661 10.5703 15.2741 10.5703 15.6541C10.5703 16.0342 10.8756 16.3422 11.2521 16.3422V14.9661ZM24.7551 16.3422C25.1316 16.3422 25.4369 16.0342 25.4369 15.6541C25.4369 15.2741 25.1316 14.9661 24.7551 14.9661V16.3422ZM11.2521 16.3422H24.7551V14.9661H11.2521V16.3422Z" fill="#227DDE"/>
<path d="M21.0178 17.9519C20.6412 17.9519 20.3359 18.26 20.3359 18.64C20.3359 19.02 20.6412 19.3281 21.0178 19.3281V17.9519ZM21.0248 19.3281C21.4013 19.3281 21.7066 19.02 21.7066 18.64C21.7066 18.26 21.4013 17.9519 21.0248 17.9519V19.3281ZM21.0178 19.3281H21.0248V17.9519H21.0178V19.3281Z" fill="#227DDE"/>
<path d="M17.6559 17.9519C17.2794 17.9519 16.9741 18.26 16.9741 18.64C16.9741 19.02 17.2794 19.3281 17.6559 19.3281V17.9519ZM17.663 19.3281C18.0395 19.3281 18.3448 19.02 18.3448 18.64C18.3448 18.26 18.0395 17.9519 17.663 17.9519V19.3281ZM17.6559 19.3281H17.663V17.9519H17.6559V19.3281Z" fill="#227DDE"/>
<path d="M14.2873 17.9519C13.9107 17.9519 13.6055 18.26 13.6055 18.64C13.6055 19.02 13.9107 19.3281 14.2873 19.3281V17.9519ZM14.2943 19.3281C14.6709 19.3281 14.9761 19.02 14.9761 18.64C14.9761 18.26 14.6709 17.9519 14.2943 17.9519V19.3281ZM14.2873 19.3281H14.2943V17.9519H14.2873V19.3281Z" fill="#227DDE"/>
<path d="M21.0178 20.9231C20.6412 20.9231 20.3359 21.2312 20.3359 21.6112C20.3359 21.9912 20.6412 22.2992 21.0178 22.2992V20.9231ZM21.0248 22.2992C21.4013 22.2992 21.7066 21.9912 21.7066 21.6112C21.7066 21.2312 21.4013 20.9231 21.0248 20.9231V22.2992ZM21.0178 22.2992H21.0248V20.9231H21.0178V22.2992Z" fill="#227DDE"/>
<path d="M17.6559 20.9231C17.2794 20.9231 16.9741 21.2312 16.9741 21.6112C16.9741 21.9912 17.2794 22.2992 17.6559 22.2992V20.9231ZM17.663 22.2992C18.0395 22.2992 18.3448 21.9912 18.3448 21.6112C18.3448 21.2312 18.0395 20.9231 17.663 20.9231V22.2992ZM17.6559 22.2992H17.663V20.9231H17.6559V22.2992Z" fill="#227DDE"/>
<path d="M14.2873 20.9231C13.9107 20.9231 13.6055 21.2312 13.6055 21.6112C13.6055 21.9912 13.9107 22.2992 14.2873 22.2992V20.9231ZM14.2943 22.2992C14.6709 22.2992 14.9761 21.9912 14.9761 21.6112C14.9761 21.2312 14.6709 20.9231 14.2943 20.9231V22.2992ZM14.2873 22.2992H14.2943V20.9231H14.2873V22.2992Z" fill="#227DDE"/>
<path d="M21.3944 10.3548C21.3944 9.97481 21.0891 9.66675 20.7126 9.66675C20.336 9.66675 20.0308 9.97481 20.0308 10.3548H21.3944ZM20.0308 12.8707C20.0308 13.2507 20.336 13.5588 20.7126 13.5588C21.0891 13.5588 21.3944 13.2507 21.3944 12.8707H20.0308ZM20.0308 10.3548V12.8707H21.3944V10.3548H20.0308Z" fill="#227DDE"/>
<path d="M15.2743 10.3548C15.2743 9.97481 14.969 9.66675 14.5925 9.66675C14.2159 9.66675 13.9106 9.97481 13.9106 10.3548H15.2743ZM13.9106 12.8707C13.9106 13.2507 14.2159 13.5588 14.5925 13.5588C14.969 13.5588 15.2743 13.2507 15.2743 12.8707H13.9106ZM13.9106 10.3548V12.8707H15.2743V10.3548H13.9106Z" fill="#227DDE"/>
<path d="M24.8182 15.1118L24.1363 15.1097V15.1118H24.8182ZM21.2108 10.874H14.7962V12.2502H21.2108V10.874ZM14.7962 10.874C13.561 10.874 12.4704 11.2226 11.685 11.9761C10.8942 12.7347 10.5 13.8199 10.5 15.1118H11.8636C11.8636 14.1048 12.1642 13.415 12.6245 12.9735C13.09 12.527 13.8066 12.2502 14.7962 12.2502V10.874ZM10.5 15.1118V22.0305H11.8636V15.1118H10.5ZM10.5 22.0305C10.5 23.3372 10.8921 24.4369 11.6802 25.2077C12.4649 25.9752 13.5569 26.3334 14.7962 26.3334V24.9572C13.8107 24.9572 13.0955 24.6756 12.6292 24.2195C12.1663 23.7667 11.8636 23.0589 11.8636 22.0305H10.5ZM14.7962 26.3334H21.2038V24.9572H14.7962V26.3334ZM21.2038 26.3334C22.443 26.3334 23.5341 25.9827 24.3187 25.2266C25.1082 24.4659 25.5 23.3793 25.5 22.0883H24.1363C24.1363 23.0964 23.8368 23.7882 23.377 24.2313C22.9124 24.6789 22.1963 24.9572 21.2038 24.9572V26.3334ZM25.5 22.0883V15.1118H24.1363V22.0883H25.5ZM25.5 15.1139C25.5039 13.8225 25.1141 12.7364 24.3244 11.9768C23.5402 11.2223 22.4489 10.874 21.2108 10.874V12.2502C22.2044 12.2502 22.9203 12.5273 23.3835 12.9729C23.8414 13.4133 24.1394 14.1021 24.1363 15.1097L25.5 15.1139Z" fill="#227DDE"/>
</svg>
