<svg width="32" height="32" viewBox="0 0 32 32" fill="none" xmlns="http://www.w3.org/2000/svg">
<g clip-path="url(#clip0_1_7460)">
<path d="M14.0945 17.9806C13.9302 16.5034 13.7606 14.9771 13.7606 13.5212C13.7606 10.8654 13.7606 3.81201 8.90975 3.81201C3.47016 3.81201 0.000551122 16.7945 0.000551122 23.5748C-0.00688634 24.5753 0.036801 29.6544 1.70179 31.3332C2.12841 31.763 2.64997 31.9913 3.21103 31.9913C4.38853 31.9913 5.01252 31.5113 5.67271 31.0047C6.39264 30.45 7.38032 29.6927 9.91668 28.961C15.1472 27.454 14.5883 22.4208 14.0945 17.9806ZM9.32787 26.9112C6.4022 27.7549 5.18202 28.6924 4.37465 29.3132C3.81365 29.7452 3.65472 29.8539 3.24297 29.8593C2.64891 29.47 2.11348 26.4516 2.13479 23.5834C2.13479 15.8357 5.93395 5.94525 8.91081 5.94525C10.7646 5.94525 11.6285 8.35255 11.6285 13.5223C11.6285 15.0956 11.8045 16.6826 11.9751 18.2164C12.5212 23.1248 12.6674 25.9491 9.32787 26.9112Z" fill="#227DDE"/>
<path d="M30.9993 23.5834H30.9993L30.9994 23.592C31.0034 24.0679 30.9943 25.5317 30.7854 27.0669C30.6809 27.8349 30.5299 28.5937 30.3172 29.2436C30.0989 29.9105 29.8446 30.3716 29.5882 30.6302C29.332 30.888 29.0608 30.9913 28.7911 30.9913C27.9693 30.9913 27.576 30.7008 26.9356 30.21C26.1412 29.5998 25.0427 28.7736 22.3596 27.9992L22.3592 27.9991C21.2051 27.6665 20.4314 27.1591 19.8992 26.5654C19.3637 25.9681 19.022 25.2263 18.824 24.3495C18.4162 22.5441 18.6484 20.3564 18.9004 18.0911L18.9004 18.091L18.9031 18.0669C19.0654 16.6074 19.2404 15.0339 19.2404 13.5201C19.2404 12.1739 19.2464 9.88666 19.8071 7.9484C20.0859 6.98458 20.4792 6.19236 21.0036 5.65194C21.5003 5.14002 22.1519 4.81201 23.0891 4.81201C24.0209 4.81201 25.0028 5.3665 26.0049 6.58243C26.9982 7.7878 27.8951 9.51049 28.649 11.5051C30.1568 15.4939 30.9993 20.3173 30.9993 23.5834ZM28.7471 30.8581L29.0536 30.8621L29.3097 30.6936C29.5784 30.5169 29.7469 30.2669 29.8483 30.089C29.9602 29.8926 30.0531 29.6704 30.1316 29.4455C30.2892 28.9939 30.4225 28.4337 30.5303 27.8244C30.7466 26.602 30.8791 25.0738 30.8671 23.5878C30.8665 19.5708 29.8872 15.0396 28.5284 11.5023C27.8492 9.73413 27.0567 8.16534 26.209 7.01843C25.7853 6.44524 25.3243 5.94507 24.8279 5.58043C24.3332 5.21706 23.7443 4.94625 23.09 4.94625C22.6218 4.94625 21.9897 5.03115 21.3795 5.50629C20.7913 5.96431 20.3431 6.69218 20.0138 7.72427L20.0137 7.72468C19.4291 9.55962 19.3735 11.9745 19.3735 13.5212C19.3735 15.0308 19.2047 16.563 19.033 18.1057L19.033 18.1057C18.7653 20.5118 18.5617 22.623 18.916 24.2552C19.1007 25.106 19.4454 25.8811 20.0452 26.5203C20.6438 27.1584 21.4332 27.5935 22.3962 27.871C25.1382 28.6623 26.2536 29.5188 26.9953 30.0883L27.0174 30.1052L27.0181 30.1058L27.0386 30.1215C27.2874 30.3122 27.5407 30.5063 27.7953 30.6357C28.124 30.8029 28.4257 30.8539 28.7471 30.8581ZM28.7601 29.8582C28.3462 29.8528 28.1873 29.7419 27.6263 29.312L28.7601 29.8582Z" fill="#227DDE" stroke="#227DDE" stroke-width="2"/>
<path d="M16.0635 11.8011L16.0639 11.802C16.4288 12.7622 16.8788 13.3845 17.4 13.7507C17.9525 14.1389 18.4543 14.1447 18.6551 14.1447C18.6921 14.1447 18.7217 14.1742 18.7217 14.2113C18.7217 14.2484 18.692 14.2779 18.6551 14.2779C18.1043 14.2779 17.4072 14.1088 16.7696 13.3438L16.0014 12.4222L15.2332 13.3438C14.5955 14.1089 13.8984 14.2779 13.3488 14.2779C13.3124 14.2779 13.2822 14.2478 13.2822 14.2113C13.2822 14.1748 13.3123 14.1447 13.3488 14.1447C13.5495 14.1447 14.051 14.1387 14.6033 13.7504C15.1243 13.3842 15.5744 12.7618 15.9399 11.8012L15.9404 11.7999C15.9489 11.7773 15.9727 11.7588 16.0025 11.7588C16.0293 11.7588 16.0539 11.7757 16.0635 11.8011Z" fill="#227DDE" stroke="#227DDE" stroke-width="2"/>
<path d="M15.9341 1.07523C15.9341 1.03884 15.9642 1.00867 16.0007 1.00867C16.0372 1.00867 16.0673 1.03876 16.0673 1.07523V12.0238C16.0673 12.0603 16.0371 12.0904 16.0007 12.0904C15.9642 12.0904 15.9341 12.0603 15.9341 12.0238V1.07523Z" fill="#227DDE" stroke="#227DDE" stroke-width="2"/>
</g>
<defs>
<clipPath id="clip0_1_7460">
<rect width="32" height="32" fill="white"/>
</clipPath>
</defs>
</svg>
