<svg width="24" height="24" viewBox="0 0 24 24" fill="none" xmlns="http://www.w3.org/2000/svg">
<path fill-rule="evenodd" clip-rule="evenodd" d="M15.6964 13.1628C15.1444 13.1628 14.6924 12.7158 14.6924 12.1628C14.6924 11.6098 15.1354 11.1628 15.6874 11.1628H15.6964C16.2484 11.1628 16.6964 11.6098 16.6964 12.1628C16.6964 12.7158 16.2484 13.1628 15.6964 13.1628Z" fill="#227DDE"/>
<path fill-rule="evenodd" clip-rule="evenodd" d="M11.6876 13.1628C11.1356 13.1628 10.6836 12.7158 10.6836 12.1628C10.6836 11.6098 11.1256 11.1628 11.6786 11.1628H11.6876C12.2396 11.1628 12.6876 11.6098 12.6876 12.1628C12.6876 12.7158 12.2396 13.1628 11.6876 13.1628Z" fill="#227DDE"/>
<path fill-rule="evenodd" clip-rule="evenodd" d="M7.67832 13.1628C7.12632 13.1628 6.67432 12.7158 6.67432 12.1628C6.67432 11.6098 7.11732 11.1628 7.66932 11.1628H7.67832C8.23032 11.1628 8.67832 11.6098 8.67832 12.1628C8.67832 12.7158 8.23032 13.1628 7.67832 13.1628Z" fill="#227DDE"/>
</svg>
