<svg width="24" height="24" viewBox="0 0 24 24" fill="none" xmlns="http://www.w3.org/2000/svg">
<path d="M18.1276 22.3636H7.91482V24H18.1276V22.3636ZM7.91482 22.3636C6.50032 22.3636 5.43858 21.9857 4.73389 21.2868C4.03946 20.598 3.5744 19.4804 3.5744 17.7273H2.04248C2.04248 19.7924 2.59868 21.402 3.6915 22.4859C4.77404 23.5597 6.26549 24 7.91482 24V22.3636ZM3.5744 17.7273V10.0909H2.04248V17.7273H3.5744ZM3.5744 10.0909C3.5744 8.33776 4.03946 7.22015 4.73389 6.53138C5.43858 5.8324 6.50032 5.45454 7.91482 5.45454V3.81818C6.26549 3.81818 4.77404 4.2585 3.6915 5.33225C2.59868 6.4162 2.04248 8.02587 2.04248 10.0909H3.5744ZM7.91482 5.45454H18.1276V3.81818H7.91482V5.45454ZM18.1276 5.45454C19.5421 5.45454 20.6038 5.8324 21.3086 6.53138C22.0029 7.22015 22.468 8.33776 22.468 10.0909H23.9999C23.9999 8.02587 23.4437 6.4162 22.3509 5.33225C21.2684 4.2585 19.7769 3.81818 18.1276 3.81818V5.45454ZM22.468 10.0909V17.7273H23.9999V10.0909H22.468ZM22.468 17.7273C22.468 19.4804 22.0029 20.598 21.3086 21.2868C20.6038 21.9857 19.5421 22.3636 18.1276 22.3636V24C19.7769 24 21.2684 23.5597 22.3509 22.4859C23.4437 21.402 23.9999 19.7924 23.9999 17.7273H22.468Z" fill="#227DDE"/>
<path d="M18.6057 11.2757C18.9362 10.9937 18.9901 10.4788 18.7261 10.1258C18.4621 9.7727 17.9802 9.71509 17.6497 9.9971L18.6057 11.2757ZM14.9311 13.3637L15.4081 14.0038L15.4091 14.003L14.9311 13.3637ZM11.1013 13.3637L10.6223 14.0022L10.6242 14.0038L11.1013 13.3637ZM8.39387 9.9979C8.06375 9.71534 7.58169 9.77215 7.31717 10.1248C7.05265 10.4774 7.10583 10.9923 7.43595 11.2749L8.39387 9.9979ZM17.6497 9.9971L14.4531 12.7244L15.4091 14.003L18.6057 11.2757L17.6497 9.9971ZM14.454 12.7236C13.6813 13.3807 12.3511 13.3807 11.5784 12.7236L10.6242 14.0038C11.9553 15.1357 14.077 15.1357 15.4081 14.0038L14.454 12.7236ZM11.5802 12.7252L8.39387 9.9979L7.43595 11.2749L10.6223 14.0021L11.5802 12.7252Z" fill="#227DDE"/>
</svg>
