<svg width="32" height="32" viewBox="0 0 32 32" fill="none" xmlns="http://www.w3.org/2000/svg">
<path d="M9 7.33337C9.55228 7.33337 10 6.88566 10 6.33337C10 5.78109 9.55228 5.33337 9 5.33337V7.33337ZM7.66667 6.33337V5.33337V6.33337ZM5 9.00004H4H5ZM5 13.6667H4H5ZM17 6.33337V5.33337V6.33337ZM15.6667 5.33337C15.1144 5.33337 14.6667 5.78109 14.6667 6.33337C14.6667 6.88566 15.1144 7.33337 15.6667 7.33337V5.33337ZM9 5.33337H7.66667V7.33337H9V5.33337ZM7.66667 5.33337C6.69421 5.33337 5.76157 5.71968 5.07394 6.40732L6.48816 7.82153C6.80072 7.50896 7.22464 7.33337 7.66667 7.33337V5.33337ZM5.07394 6.40732C4.38631 7.09495 4 8.02758 4 9.00004H6C6 8.55801 6.17559 8.13409 6.48816 7.82153L5.07394 6.40732ZM4 9.00004V13.6667H6V9.00004H4ZM4 13.6667C4 15.8768 4.87797 17.9965 6.44078 19.5593L7.85499 18.1451C6.66726 16.9573 6 15.3464 6 13.6667H4ZM6.44078 19.5593C8.00358 21.1221 10.1232 22.0001 12.3333 22.0001V20.0001C10.6536 20.0001 9.04272 19.3328 7.85499 18.1451L6.44078 19.5593ZM12.3333 22.0001C14.5435 22.0001 16.6631 21.1221 18.2259 19.5593L16.8117 18.1451C15.6239 19.3328 14.013 20.0001 12.3333 20.0001V22.0001ZM18.2259 19.5593C19.7887 17.9965 20.6667 15.8768 20.6667 13.6667H18.6667C18.6667 15.3464 17.9994 16.9573 16.8117 18.1451L18.2259 19.5593ZM20.6667 13.6667V9.00004H18.6667V13.6667H20.6667ZM20.6667 9.00004C20.6667 8.02758 20.2804 7.09495 19.5927 6.40732L18.1785 7.82153C18.4911 8.13409 18.6667 8.55801 18.6667 9.00004H20.6667ZM19.5927 6.40732C18.9051 5.71968 17.9725 5.33337 17 5.33337V7.33337C17.442 7.33337 17.8659 7.50896 18.1785 7.82153L19.5927 6.40732ZM17 5.33337H15.6667V7.33337H17V5.33337Z" fill="#227DDE"/>
<path d="M12.6667 21C12.6667 20.4477 12.219 20 11.6667 20C11.1145 20 10.6667 20.4477 10.6667 21H12.6667ZM27.6667 21H26.6667H27.6667ZM28.6667 17C28.6667 16.4477 28.219 16 27.6667 16C27.1144 16 26.6667 16.4477 26.6667 17H28.6667ZM10.6667 21C10.6667 22.1819 10.8995 23.3522 11.3518 24.4441L13.1996 23.6788C12.8478 22.8295 12.6667 21.9193 12.6667 21H10.6667ZM11.3518 24.4441C11.8041 25.5361 12.4671 26.5282 13.3028 27.364L14.717 25.9497C14.067 25.2997 13.5514 24.5281 13.1996 23.6788L11.3518 24.4441ZM13.3028 27.364C14.1385 28.1997 15.1307 28.8626 16.2226 29.3149L16.988 27.4672C16.1387 27.1154 15.367 26.5998 14.717 25.9497L13.3028 27.364ZM16.2226 29.3149C17.3145 29.7672 18.4848 30 19.6667 30V28C18.7475 28 17.8372 27.8189 16.988 27.4672L16.2226 29.3149ZM19.6667 30C20.8486 30 22.0189 29.7672 23.1108 29.3149L22.3455 27.4672C21.4962 27.8189 20.586 28 19.6667 28V30ZM23.1108 29.3149C24.2028 28.8626 25.1949 28.1997 26.0307 27.364L24.6164 25.9497C23.9664 26.5998 23.1948 27.1154 22.3455 27.4672L23.1108 29.3149ZM26.0307 27.364C26.8664 26.5282 27.5293 25.5361 27.9816 24.4441L26.1339 23.6788C25.7821 24.5281 25.2665 25.2997 24.6164 25.9497L26.0307 27.364ZM27.9816 24.4441C28.4339 23.3522 28.6667 22.1819 28.6667 21H26.6667C26.6667 21.9193 26.4856 22.8295 26.1339 23.6788L27.9816 24.4441ZM28.6667 21V17H26.6667V21H28.6667Z" fill="#227DDE"/>
<path d="M16.6667 5C16.6667 4.44771 16.219 4 15.6667 4C15.1145 4 14.6667 4.44771 14.6667 5H16.6667ZM14.6667 7.66667C14.6667 8.21895 15.1145 8.66667 15.6667 8.66667C16.219 8.66667 16.6667 8.21895 16.6667 7.66667H14.6667ZM14.6667 5V7.66667H16.6667V5H14.6667Z" fill="#227DDE"/>
<path d="M10 5C10 4.44771 9.55228 4 9 4C8.44771 4 8 4.44771 8 5H10ZM8 7.66667C8 8.21895 8.44771 8.66667 9 8.66667C9.55228 8.66667 10 8.21895 10 7.66667H8ZM8 5V7.66667H10V5H8Z" fill="#227DDE"/>
<path d="M29.3333 14.3333C29.3333 15.2538 28.5871 16 27.6667 16V18C29.6917 18 31.3333 16.3583 31.3333 14.3333H29.3333ZM27.6667 16C26.7462 16 26 15.2538 26 14.3333H24C24 16.3583 25.6416 18 27.6667 18V16ZM26 14.3333C26 13.4128 26.7462 12.6666 27.6667 12.6666V10.6666C25.6416 10.6666 24 12.3082 24 14.3333H26ZM27.6667 12.6666C28.5871 12.6666 29.3333 13.4128 29.3333 14.3333H31.3333C31.3333 12.3082 29.6917 10.6666 27.6667 10.6666V12.6666Z" fill="#227DDE"/>
</svg>
