<svg width="18" height="18" viewBox="0 0 18 18" fill="none" xmlns="http://www.w3.org/2000/svg">
<path d="M14.6012 7.34088C14.631 6.96828 14.3558 6.64188 13.9864 6.61184C13.6171 6.5818 13.2936 6.8595 13.2638 7.23209L14.6012 7.34088ZM13.3569 13.7651L12.6902 13.6904L12.6901 13.6906L13.3569 13.7651ZM11.775 15.2365L11.7871 15.9133H11.7872L11.775 15.2365ZM6.5227 15.2331L6.53685 14.5565L6.53644 14.5565L6.5227 15.2331ZM4.98707 13.7698L5.65389 13.6955L5.65386 13.6953L4.98707 13.7698ZM5.08084 7.23225C5.05115 6.85965 4.72769 6.58188 4.35836 6.61183C3.98904 6.64179 3.71371 6.96812 3.7434 7.34072L5.08084 7.23225ZM13.9326 7.28648C13.2638 7.23209 13.2638 7.23211 13.2638 7.23214C13.2638 7.23217 13.2638 7.23222 13.2638 7.23228C13.2638 7.23242 13.2638 7.23262 13.2638 7.23289C13.2637 7.23343 13.2637 7.23425 13.2636 7.23534C13.2634 7.23751 13.2631 7.24077 13.2628 7.24509C13.2621 7.25373 13.2611 7.26659 13.2597 7.28347C13.257 7.31723 13.253 7.36703 13.2478 7.43112C13.2375 7.5593 13.2224 7.74461 13.2037 7.97302C13.1663 8.42986 13.1142 9.0589 13.0556 9.74779C12.938 11.1285 12.7948 12.74 12.6902 13.6904L14.0237 13.8398C14.1305 12.87 14.275 11.2422 14.3924 9.86366C14.4512 9.17292 14.5035 8.54235 14.5409 8.08447C14.5596 7.85552 14.5748 7.66971 14.5851 7.54109C14.5903 7.47679 14.5943 7.42678 14.5971 7.39282C14.5985 7.37584 14.5995 7.36288 14.6002 7.35415C14.6005 7.34978 14.6008 7.34648 14.601 7.34426C14.6011 7.34315 14.6011 7.34231 14.6011 7.34174C14.6012 7.34146 14.6012 7.34125 14.6012 7.3411C14.6012 7.34103 14.6012 7.34097 14.6012 7.34094C14.6012 7.3409 14.6012 7.34088 13.9326 7.28648ZM12.6901 13.6906C12.6533 14.0265 12.5411 14.2258 12.4166 14.3425C12.2936 14.4578 12.0934 14.5537 11.7628 14.5598L11.7872 15.9133C12.3764 15.9024 12.9169 15.7212 13.3298 15.3343C13.7411 14.9488 13.96 14.4208 14.0237 13.8396L12.6901 13.6906ZM11.7629 14.5598C10.0201 14.5915 8.27659 14.5935 6.53685 14.5565L6.50856 15.9098C8.26811 15.9473 10.0293 15.9452 11.7871 15.9133L11.7629 14.5598ZM6.53644 14.5565C6.23156 14.5502 6.04243 14.4575 5.92289 14.3425C5.80021 14.2246 5.68986 14.0241 5.65389 13.6955L4.32024 13.8441C4.38289 14.4164 4.59791 14.9385 4.99718 15.3224C5.39958 15.7093 5.92896 15.8979 6.50897 15.9098L6.53644 14.5565ZM5.65386 13.6953C5.54859 12.7364 5.40551 11.1237 5.28827 9.74395C5.22977 9.05553 5.17791 8.42748 5.14066 7.97152C5.12204 7.74356 5.10708 7.55865 5.09678 7.43078C5.09163 7.36684 5.08764 7.31716 5.08494 7.28349C5.08359 7.26666 5.08257 7.25382 5.08188 7.24521C5.08153 7.2409 5.08127 7.23765 5.0811 7.23548C5.08102 7.2344 5.08095 7.23358 5.08091 7.23304C5.08089 7.23277 5.08087 7.23257 5.08086 7.23244C5.08085 7.23237 5.08085 7.23232 5.08085 7.23229C5.08084 7.23226 5.08084 7.23225 4.41212 7.28648C3.7434 7.34072 3.74341 7.34074 3.74341 7.34078C3.74341 7.34082 3.74342 7.34087 3.74342 7.34095C3.74343 7.34109 3.74345 7.3413 3.74347 7.34159C3.74352 7.34215 3.74358 7.34299 3.74367 7.34409C3.74385 7.34631 3.74411 7.34961 3.74446 7.35396C3.74516 7.36267 3.74619 7.3756 3.74755 7.39254C3.75026 7.42641 3.75426 7.4763 3.75943 7.54045C3.76977 7.66877 3.78478 7.85418 3.80344 8.08269C3.84077 8.53969 3.89276 9.16928 3.95142 9.85957C4.06848 11.2372 4.21288 12.8662 4.32027 13.8444L5.65386 13.6953Z" fill="#ADADAD"/>
<path d="M14.8601 5.4396C15.2306 5.4396 15.531 5.13657 15.531 4.76277C15.531 4.38896 15.2306 4.08594 14.8601 4.08594V5.4396ZM3.48338 4.08594C3.11286 4.08594 2.8125 4.38896 2.8125 4.76277C2.8125 5.13657 3.11286 5.4396 3.48338 5.4396V4.08594ZM14.8601 4.08594H3.48338V5.4396H14.8601V4.08594Z" fill="#ADADAD"/>
<path d="M12.6683 5.77811C13.0388 5.77811 13.3392 5.47508 13.3392 5.10128C13.3392 4.72748 13.0388 4.42445 12.6683 4.42445V5.77811ZM11.5849 4.20516L10.927 4.33779L10.927 4.33806L11.5849 4.20516ZM11.4218 3.38213L12.0797 3.2495C12.0769 3.23533 12.0736 3.22126 12.0699 3.2073L11.4218 3.38213ZM6.92225 3.38213L6.27414 3.2073C6.27044 3.22126 6.26719 3.23533 6.26438 3.2495L6.92225 3.38213ZM6.75923 4.20516L7.41705 4.33806L7.4171 4.33779L6.75923 4.20516ZM5.67576 4.42445C5.30524 4.42445 5.00488 4.72748 5.00488 5.10128C5.00488 5.47508 5.30524 5.77811 5.67576 5.77811V4.42445ZM12.6683 4.42445C12.4618 4.42445 12.2833 4.27684 12.2427 4.07225L10.927 4.33806C11.0931 5.17444 11.8216 5.77811 12.6683 5.77811V4.42445ZM12.2427 4.07252L12.0797 3.2495L10.764 3.51476L10.927 4.33779L12.2427 4.07252ZM12.0699 3.2073C11.8906 2.53045 11.2831 2.06299 10.592 2.06299V3.41665C10.6777 3.41665 10.7518 3.47441 10.7737 3.55696L12.0699 3.2073ZM10.592 2.06299H7.75213V3.41665H10.592V2.06299ZM7.75213 2.06299C7.06102 2.06299 6.45353 2.53045 6.27414 3.2073L7.57036 3.55696C7.59224 3.47441 7.66635 3.41665 7.75213 3.41665V2.06299ZM6.26438 3.2495L6.10136 4.07252L7.4171 4.33779L7.58012 3.51476L6.26438 3.2495ZM6.10141 4.07225C6.0608 4.27684 5.88227 4.42445 5.67576 4.42445V5.77811C6.52253 5.77811 7.25103 5.17444 7.41705 4.33806L6.10141 4.07225Z" fill="#ADADAD"/>
</svg>
