<svg width="24" height="24" viewBox="0 0 24 24" fill="none" xmlns="http://www.w3.org/2000/svg">
<path d="M3.77727 8.44788C3.39492 8.44788 3.08496 8.76024 3.08496 9.14555C3.08496 9.53086 3.39492 9.84322 3.77727 9.84322V8.44788ZM20.2301 9.84322C20.6125 9.84322 20.9224 9.53086 20.9224 9.14555C20.9224 8.76024 20.6125 8.44788 20.2301 8.44788V9.84322ZM3.77727 9.84322H20.2301V8.44788H3.77727V9.84322Z" fill="#ADADAD"/>
<path d="M15.6767 12.0808C15.2943 12.0808 14.9844 12.3932 14.9844 12.7785C14.9844 13.1638 15.2943 13.4762 15.6767 13.4762V12.0808ZM15.6852 13.4762C16.0676 13.4762 16.3775 13.1638 16.3775 12.7785C16.3775 12.3932 16.0676 12.0808 15.6852 12.0808V13.4762ZM15.6767 13.4762H15.6852V12.0808H15.6767V13.4762Z" fill="#ADADAD"/>
<path d="M11.581 12.0808C11.1986 12.0808 10.8887 12.3932 10.8887 12.7785C10.8887 13.1638 11.1986 13.4762 11.581 13.4762V12.0808ZM11.5895 13.4762C11.9719 13.4762 12.2818 13.1638 12.2818 12.7785C12.2818 12.3932 11.9719 12.0808 11.5895 12.0808V13.4762ZM11.581 13.4762H11.5895V12.0808H11.581V13.4762Z" fill="#ADADAD"/>
<path d="M7.47649 12.0808C7.09414 12.0808 6.78418 12.3932 6.78418 12.7785C6.78418 13.1638 7.09414 13.4762 7.47649 13.4762V12.0808ZM7.48504 13.4762C7.86739 13.4762 8.17734 13.1638 8.17734 12.7785C8.17734 12.3932 7.86739 12.0808 7.48504 12.0808V13.4762ZM7.47649 13.4762H7.48504V12.0808H7.47649V13.4762Z" fill="#ADADAD"/>
<path d="M15.6767 15.6962C15.2943 15.6962 14.9844 16.0085 14.9844 16.3938C14.9844 16.7792 15.2943 17.0915 15.6767 17.0915V15.6962ZM15.6852 17.0915C16.0676 17.0915 16.3775 16.7792 16.3775 16.3938C16.3775 16.0085 16.0676 15.6962 15.6852 15.6962V17.0915ZM15.6767 17.0915H15.6852V15.6962H15.6767V17.0915Z" fill="#ADADAD"/>
<path d="M11.581 15.6962C11.1986 15.6962 10.8887 16.0085 10.8887 16.3938C10.8887 16.7792 11.1986 17.0915 11.581 17.0915V15.6962ZM11.5895 17.0915C11.9719 17.0915 12.2818 16.7792 12.2818 16.3938C12.2818 16.0085 11.9719 15.6962 11.5895 15.6962V17.0915ZM11.581 17.0915H11.5895V15.6962H11.581V17.0915Z" fill="#ADADAD"/>
<path d="M7.47649 15.6962C7.09414 15.6962 6.78418 16.0085 6.78418 16.3938C6.78418 16.7792 7.09414 17.0915 7.47649 17.0915V15.6962ZM7.48504 17.0915C7.86739 17.0915 8.17734 16.7792 8.17734 16.3938C8.17734 16.0085 7.86739 15.6962 7.48504 15.6962V17.0915ZM7.47649 17.0915H7.48504V15.6962H7.47649V17.0915Z" fill="#ADADAD"/>
<path d="M15.9979 2.69767C15.9979 2.31236 15.6879 2 15.3056 2C14.9232 2 14.6133 2.31236 14.6133 2.69767H15.9979ZM14.6133 5.75886C14.6133 6.14417 14.9232 6.45653 15.3056 6.45653C15.6879 6.45653 15.9979 6.14417 15.9979 5.75886H14.6133ZM14.6133 2.69767V5.75886H15.9979V2.69767H14.6133Z" fill="#ADADAD"/>
<path d="M8.54086 2.69767C8.54086 2.31236 8.23091 2 7.84856 2C7.46621 2 7.15625 2.31236 7.15625 2.69767H8.54086ZM7.15625 5.75886C7.15625 6.14417 7.46621 6.45653 7.84856 6.45653C8.23091 6.45653 8.54086 6.14417 8.54086 5.75886H7.15625ZM7.15625 2.69767V5.75886H8.54086V2.69767H7.15625Z" fill="#ADADAD"/>
<path d="M20.3077 8.48576L19.6154 8.48361V8.48576H20.3077ZM15.9123 3.46899H8.09626V4.86434H15.9123V3.46899ZM8.09626 3.46899C6.61616 3.46899 5.32536 3.88583 4.40076 4.77157C3.4708 5.66243 3 6.94267 3 8.48576H4.38461C4.38461 7.23156 4.7604 6.35224 5.35473 5.78289C5.9544 5.20841 6.86558 4.86434 8.09626 4.86434V3.46899ZM3 8.48576V16.904H4.38461V8.48576H3ZM3 16.904C3 18.4658 3.46868 19.764 4.39592 20.6696C5.31971 21.5719 6.612 22 8.09626 22V20.6046C6.86973 20.6046 5.96005 20.2542 5.35956 19.6677C4.76252 19.0845 4.38461 18.1835 4.38461 16.904H3ZM8.09626 22H15.9037V20.6046H8.09626V22ZM15.9037 22C17.3886 22 18.6799 21.5806 19.6034 20.692C20.532 19.7986 21 18.5164 21 16.9744H19.6154C19.6154 18.2296 19.241 19.1115 18.6473 19.6827C18.0487 20.2586 17.1381 20.6046 15.9037 20.6046V22ZM21 16.9744V8.48576H19.6154V16.9744H21ZM21 8.48791C21.0047 6.94535 20.539 5.66416 19.6106 4.77224C18.6876 3.88551 17.396 3.46899 15.9123 3.46899V4.86434C17.1478 4.86434 18.0582 5.20872 18.6552 5.78221C19.2468 6.35051 19.6191 7.22887 19.6154 8.48361L21 8.48791Z" fill="#ADADAD"/>
</svg>
