<svg width="17" height="20" viewBox="0 0 17 20" fill="none" xmlns="http://www.w3.org/2000/svg">
<g clip-path="url(#clip0_1_5385)">
<path d="M14.0399 19.1999C12.9559 20.2519 11.7599 20.0879 10.6199 19.5919C9.40789 19.0859 8.29989 19.0539 7.01989 19.5919C5.42589 20.2799 4.57989 20.0799 3.61989 19.1999C-1.80011 13.62 -1.00011 5.12 5.15989 4.80001C6.65389 4.88001 7.69989 5.626 8.57989 5.688C9.88789 5.422 11.1399 4.66001 12.5399 4.76001C14.2219 4.89601 15.4799 5.56 16.3199 6.754C12.8599 8.83399 13.6799 13.394 16.8579 14.674C16.2219 16.344 15.4059 17.9939 14.0379 19.2139L14.0399 19.1999ZM8.45989 4.74001C8.29789 2.26001 10.3079 0.220019 12.6199 0.0200195C12.9379 2.88001 10.0199 5.02001 8.45989 4.74001Z" fill="#101623"/>
</g>
<defs>
<clipPath id="clip0_1_5385">
<rect width="16.84" height="20" fill="white"/>
</clipPath>
</defs>
</svg>
