<svg width="24" height="24" viewBox="0 0 24 24" fill="none" xmlns="http://www.w3.org/2000/svg">
<path d="M17.931 9.63047C18.2299 9.38925 18.2752 8.95321 18.0321 8.65656C17.789 8.35991 17.3496 8.31497 17.0506 8.55619L17.931 9.63047ZM13.3575 12.4284L13.7911 12.9708L13.7977 12.9656L13.3575 12.4284ZM10.6969 12.4284L10.259 12.9674L10.2633 12.9708L10.6969 12.4284ZM6.96668 8.5544C6.66673 8.3144 6.22751 8.36113 5.98565 8.65877C5.74378 8.95641 5.79087 9.39226 6.09082 9.63226L6.96668 8.5544ZM17.0506 8.55619L12.9173 11.8913L13.7977 12.9656L17.931 9.63047L17.0506 8.55619ZM12.9239 11.8861C12.3969 12.3009 11.6575 12.3009 11.1305 11.8861L10.2633 12.9708C11.2982 13.7855 12.7562 13.7855 13.7911 12.9708L12.9239 11.8861ZM11.1349 11.8895L6.96668 8.5544L6.09082 9.63226L10.259 12.9674L11.1349 11.8895Z" fill="#ADADAD"/>
<path d="M16.5664 20.3077L16.5683 19.6154H16.5664V20.3077ZM7.43362 20.3077V19.6154H7.43168L7.43362 20.3077ZM16.5645 21C19.8585 21.009 22 18.3087 22 15.1739H20.6047C20.6047 17.7089 18.9326 19.6218 16.5683 19.6154L16.5645 21ZM22 15.1739V8.83385H20.6047V15.1739H22ZM22 8.83385C22 5.69847 19.8585 3 16.5664 3V4.38461C18.9326 4.38461 20.6047 6.29935 20.6047 8.83385H22ZM16.5664 3H7.43362V4.38461H16.5664V3ZM7.43362 3C4.14147 3 2 5.69847 2 8.83385H3.39535C3.39535 6.29935 5.06743 4.38461 7.43362 4.38461V3ZM2 8.83385V15.1739H3.39535V8.83385H2ZM2 15.1739C2 18.3087 4.14146 21.009 7.43554 21L7.43168 19.6154C5.06744 19.6218 3.39535 17.7089 3.39535 15.1739H2ZM7.43362 21H16.5664V19.6154H7.43362V21Z" fill="#ADADAD"/>
</svg>
