<svg width="20" height="20" viewBox="0 0 20 20" fill="none" xmlns="http://www.w3.org/2000/svg">
<path d="M19.5749 10.2249C19.5749 9.56652 19.5166 8.94153 19.4166 8.3332H9.99994V12.0915H15.3916C15.1499 13.3248 14.4416 14.3665 13.3916 15.0748V17.5748H16.6082C18.4916 15.8332 19.5749 13.2665 19.5749 10.2249Z" fill="#4285F4"/>
<path d="M10.0001 20C12.7001 20 14.9584 19.1 16.6084 17.575L13.3918 15.075C12.4918 15.675 11.3501 16.0417 10.0001 16.0417C7.39182 16.0417 5.18349 14.2834 4.39184 11.9084H1.07519V14.4834C2.71685 17.75 6.09183 20 10.0001 20Z" fill="#34A853"/>
<path d="M4.39164 11.9082C4.1833 11.3082 4.07497 10.6665 4.07497 9.99987C4.07497 9.3332 4.19164 8.69155 4.39164 8.09155V5.51657H1.07499C0.391664 6.86656 0 8.38321 0 9.99987C0 11.6165 0.391664 13.1332 1.07499 14.4832L4.39164 11.9082Z" fill="#FBBC05"/>
<path d="M10.0001 3.95831C11.4751 3.95831 12.7918 4.46664 13.8334 5.45831L16.6834 2.60831C14.9584 0.991662 12.7001 0 10.0001 0C6.09183 0 2.71685 2.24999 1.07519 5.51664L4.39184 8.09162C5.18349 5.71664 7.39182 3.95831 10.0001 3.95831Z" fill="#EA4335"/>
</svg>
