<svg width="32" height="32" viewBox="0 0 32 32" fill="none" xmlns="http://www.w3.org/2000/svg">
<path d="M6.29327 16.9596C5.90275 17.3501 5.90275 17.9832 6.29327 18.3738C6.68379 18.7643 7.31696 18.7643 7.70748 18.3738L6.29327 16.9596ZM5.06738 22.3333H6.06738H5.06738ZM7.70748 18.3738C8.09801 17.9832 8.09801 17.3501 7.70748 16.9596C7.31696 16.569 6.68379 16.569 6.29327 16.9596L7.70748 18.3738ZM7.70748 18.3738L18.3742 7.70712L16.96 6.29291L6.29327 16.9596L7.70748 18.3738ZM18.3742 7.70712C19.4243 6.65698 20.8486 6.06702 22.3337 6.06702V4.06702C20.3182 4.06702 18.3852 4.86769 16.96 6.29291L18.3742 7.70712ZM22.3337 6.06702C23.8189 6.06702 25.2431 6.65698 26.2933 7.70712L27.7075 6.29291C26.2823 4.86769 24.3493 4.06702 22.3337 4.06702V6.06702ZM26.2933 7.70712C27.3434 8.75726 27.9334 10.1816 27.9334 11.6667H29.9334C29.9334 9.65113 29.1327 7.71812 27.7075 6.29291L26.2933 7.70712ZM27.9334 11.6667C27.9334 13.1518 27.3434 14.5761 26.2933 15.6262L27.7075 17.0404C29.1327 15.6152 29.9334 13.6822 29.9334 11.6667H27.9334ZM26.2933 15.6262L15.6266 26.2929L17.0408 27.7071L27.7075 17.0404L26.2933 15.6262ZM15.6266 26.2929C14.5765 27.343 13.1522 27.933 11.667 27.933V29.933C13.6826 29.933 15.6156 29.1323 17.0408 27.7071L15.6266 26.2929ZM11.667 27.933C10.1819 27.933 8.75762 27.343 7.70748 26.2929L6.29327 27.7071C7.71848 29.1323 9.65149 29.933 11.667 29.933V27.933ZM7.70748 26.2929C6.65734 25.2427 6.06738 23.8185 6.06738 22.3333H4.06738C4.06738 24.3489 4.86806 26.2819 6.29327 27.7071L7.70748 26.2929ZM6.06738 22.3333C6.06738 20.8482 6.65734 19.4239 7.70748 18.3738L6.29327 16.9596C4.86806 18.3848 4.06738 20.3178 4.06738 22.3333H6.06738Z" fill="#227DDE"/>
<path d="M13.0401 11.6263C12.6496 11.2357 12.0164 11.2357 11.6259 11.6263C11.2354 12.0168 11.2354 12.65 11.6259 13.0405L13.0401 11.6263ZM20.9592 22.3738C21.3498 22.7644 21.9829 22.7644 22.3734 22.3738C22.764 21.9833 22.764 21.3501 22.3734 20.9596L20.9592 22.3738ZM11.6259 13.0405L20.9592 22.3738L22.3734 20.9596L13.0401 11.6263L11.6259 13.0405Z" fill="#227DDE"/>
</svg>
