<svg width="20" height="20" viewBox="0 0 20 20" fill="none" xmlns="http://www.w3.org/2000/svg">
<path d="M9.62615 3.6908C10.0042 3.6908 10.3107 3.38425 10.3107 3.0061C10.3107 2.62796 10.0042 2.32141 9.62615 2.32141V3.6908ZM17.9849 10.2676C17.9849 9.8895 17.6784 9.58296 17.3003 9.58296C16.9222 9.58296 16.6157 9.8895 16.6157 10.2676H17.9849ZM9.62615 2.32141H6.78209V3.6908H9.62615V2.32141ZM6.78209 2.32141C5.44303 2.32141 4.30318 2.80014 3.50143 3.66044C2.70467 4.5154 2.29199 5.69251 2.29199 7.00699H3.66116C3.66116 5.97677 3.98174 5.15344 4.50299 4.59413C5.01926 4.04016 5.78216 3.6908 6.78209 3.6908V2.32141ZM2.29199 7.00699V13.332H3.66116V7.00699H2.29199ZM2.29199 13.332C2.29199 14.6457 2.70245 15.8229 3.49856 16.6782C4.29983 17.5391 5.44005 18.0176 6.78209 18.0176V16.6482C5.7783 16.6482 5.01576 16.2985 4.50073 15.7452C3.98054 15.1863 3.66116 14.363 3.66116 13.332H2.29199ZM6.78209 18.0176H13.494V16.6482H6.78209V18.0176ZM13.494 18.0176C14.8364 18.0176 15.9768 17.5392 16.7782 16.6783C17.5744 15.8229 17.9849 14.6457 17.9849 13.332H16.6157C16.6157 14.363 16.2963 15.1862 15.7761 15.7452C15.261 16.2985 14.4983 16.6482 13.494 16.6482V18.0176ZM17.9849 13.332V10.2676H16.6157V13.332H17.9849Z" fill="#227DDE"/>
<path d="M7.59945 9.19255L8.08352 9.6767L7.59945 9.19255ZM13.2838 3.50732L12.7999 3.02291L12.7997 3.02317L13.2838 3.50732ZM15.8479 3.50732L16.332 3.02317L16.3317 3.02291L15.8479 3.50732ZM16.7736 6.99773L16.2898 6.51332L16.2895 6.51358L16.7736 6.99773ZM11.0619 12.7104L11.546 13.1945L11.0619 12.7104ZM7.04493 13.1942L6.36056 13.1771C6.35598 13.3616 6.42604 13.5402 6.55488 13.6723C6.68372 13.8044 6.86042 13.8789 7.04493 13.8789V13.1942ZM7.11643 10.3185L6.43207 10.3012L6.43206 10.3015L7.11643 10.3185ZM8.08352 9.6767L13.7678 3.99147L12.7997 3.02317L7.11537 8.7084L8.08352 9.6767ZM13.7676 3.99173C14.2084 3.55126 14.9232 3.55126 15.3641 3.99173L16.3317 3.02291C15.3563 2.04835 13.7754 2.04835 12.7999 3.02291L13.7676 3.99173ZM15.3638 3.99147L16.2895 4.91733L17.2577 3.94903L16.332 3.02317L15.3638 3.99147ZM16.2895 4.91733C16.7305 5.35836 16.7301 6.07339 16.2898 6.51332L17.2574 7.48214C18.2334 6.50703 18.233 4.92455 17.2577 3.94903L16.2895 4.91733ZM16.2895 6.51358L10.5778 12.2262L11.546 13.1945L17.2577 7.48188L16.2895 6.51358ZM10.5778 12.2262C10.3965 12.4075 10.1507 12.5095 9.89432 12.5095V13.8789C10.5142 13.8789 11.1082 13.6324 11.546 13.1945L10.5778 12.2262ZM9.89432 12.5095H7.04493V13.8789H9.89432V12.5095ZM7.7293 13.2112L7.80081 10.3355L6.43206 10.3015L6.36056 13.1771L7.7293 13.2112ZM7.8008 10.3357C7.80703 10.0882 7.9081 9.85215 8.08352 9.6767L7.11537 8.7084C6.6914 9.13243 6.44713 9.70285 6.43207 10.3012L7.8008 10.3357Z" fill="#227DDE"/>
<path d="M12.904 3.90159C12.6367 3.6342 12.2032 3.6342 11.9359 3.90159C11.6685 4.16898 11.6685 4.6025 11.9359 4.86989L12.904 3.90159ZM15.409 8.34356C15.6763 8.61095 16.1098 8.61095 16.3771 8.34356C16.6445 8.07618 16.6445 7.64265 16.3771 7.37526L15.409 8.34356ZM11.9359 4.86989L15.409 8.34356L16.3771 7.37526L12.904 3.90159L11.9359 4.86989Z" fill="#227DDE"/>
</svg>
