<svg width="15" height="15" viewBox="0 0 15 15" fill="none" xmlns="http://www.w3.org/2000/svg">
<path d="M2.52218 13.3649H1.99121H2.52218ZM3.51776 4.83413V5.40285V4.83413ZM5.50855 4.83413V5.40285C5.68607 5.40285 5.85187 5.30782 5.95034 5.1496L5.50855 4.83413ZM6.50412 3.23461V2.66589C6.32659 2.66589 6.1608 2.76093 6.06232 2.91914L6.50412 3.23461ZM10.4864 3.23461L10.9282 2.91914C10.8297 2.76093 10.664 2.66589 10.4864 2.66589V3.23461ZM11.482 4.83413L11.0402 5.1496C11.1387 5.30782 11.3045 5.40285 11.482 5.40285V4.83413ZM13.4735 13.8625H3.51776V15H13.4735V13.8625ZM3.51776 13.8625C3.39454 13.8625 3.27637 13.8101 3.18924 13.7168L2.43833 14.5211C2.72461 14.8277 3.11289 15 3.51776 15V13.8625ZM3.18924 13.7168C3.10211 13.6235 3.05316 13.4969 3.05316 13.3649H1.99121C1.99121 13.7986 2.15204 14.2144 2.43833 14.5211L3.18924 13.7168ZM3.05316 13.3649V5.90048H1.99121V13.3649H3.05316ZM3.05316 5.90048C3.05316 5.7685 3.10211 5.64193 3.18924 5.5486L2.43833 4.74431C2.15204 5.05095 1.99121 5.46683 1.99121 5.90048H3.05316ZM3.18924 5.5486C3.27637 5.45527 3.39454 5.40285 3.51776 5.40285V4.26541C3.11289 4.26541 2.72461 4.43768 2.43833 4.74431L3.18924 5.5486ZM3.51776 5.40285H5.50855V4.26541H3.51776V5.40285ZM5.95034 5.1496L6.94592 3.55008L6.06232 2.91914L5.06675 4.51866L5.95034 5.1496ZM6.50412 3.80333H10.4864V2.66589H6.50412V3.80333ZM10.0446 3.55008L11.0402 5.1496L11.9238 4.51866L10.9282 2.91914L10.0446 3.55008ZM11.482 5.40285H13.4735V4.26541H11.482V5.40285ZM13.4735 5.40285C13.5967 5.40285 13.7149 5.45527 13.8021 5.5486L14.553 4.74431C14.2667 4.43768 13.8783 4.26541 13.4735 4.26541V5.40285ZM13.8021 5.5486C13.8892 5.64193 13.9381 5.7685 13.9381 5.90048H15.0001C15.0001 5.46683 14.8392 5.05095 14.553 4.74431L13.8021 5.5486ZM13.9381 5.90048V13.3649H15.0001V5.90048H13.9381ZM13.9381 13.3649C13.9381 13.4969 13.8892 13.6235 13.8021 13.7168L14.553 14.5211C14.8392 14.2144 15.0001 13.7986 15.0001 13.3649H13.9381ZM13.8021 13.7168C13.7149 13.8101 13.5967 13.8625 13.4735 13.8625V15C13.8783 15 14.2667 14.8277 14.553 14.5211L13.8021 13.7168Z" fill="#227DDE"/>
<path d="M10.2047 9.36608C10.2047 10.3771 9.43952 11.1966 8.49563 11.1966V12.3341C10.026 12.3341 11.2666 11.0052 11.2666 9.36608H10.2047ZM8.49563 11.1966C7.55173 11.1966 6.78656 10.3771 6.78656 9.36608H5.72461C5.72461 11.0052 6.96524 12.3341 8.49563 12.3341V11.1966ZM6.78656 9.36608C6.78656 8.35508 7.55173 7.53551 8.49563 7.53551V6.39807C6.96524 6.39807 5.72461 7.72689 5.72461 9.36608H6.78656ZM8.49563 7.53551C9.43952 7.53551 10.2047 8.35508 10.2047 9.36608H11.2666C11.2666 7.72689 10.026 6.39807 8.49563 6.39807V7.53551Z" fill="#227DDE"/>
</svg>
