<svg width="24" height="24" viewBox="0 0 24 24" fill="none" xmlns="http://www.w3.org/2000/svg">
<g clip-path="url(#clip0_1_6720)">
<path d="M20.2157 19.6727L20.8888 20.2836L20.8892 20.2832L20.2157 19.6727ZM18.725 20.7455L18.3803 19.9043L18.3754 19.9063L18.725 20.7455ZM10.8624 18.6273L10.3263 19.3614L10.3274 19.3622L10.8624 18.6273ZM7.88101 16.0818L7.23514 16.7215L7.24139 16.7277L7.88101 16.0818ZM5.34499 13.1091L4.60708 13.6399L4.61016 13.6442L5.34499 13.1091ZM3.56342 10.0091L2.72568 10.3619L2.72681 10.3645L3.56342 10.0091ZM3.23619 5.28182L4.08016 5.61945L4.08205 5.61465L3.23619 5.28182ZM4.2815 3.76364L4.90525 4.4249L4.91228 4.41827L4.91916 4.4115L4.2815 3.76364ZM6.90841 3.07273L6.51508 3.89229L6.52127 3.89526L6.5275 3.89815L6.90841 3.07273ZM7.51742 3.58182L6.77002 4.09932L6.77609 4.10785L7.51742 3.58182ZM9.62622 6.55455L8.88487 7.08059L8.88857 7.08574L9.62622 6.55455ZM9.98981 7.19091L9.14851 7.53512L9.15137 7.54209L9.15433 7.54902L9.98981 7.19091ZM9.92618 8.39091L9.14974 7.91823L9.1421 7.93079L9.13487 7.94358L9.92618 8.39091ZM9.41716 9.03636L8.77442 8.39354L8.7682 8.39976L8.7621 8.4061L9.41716 9.03636ZM8.72634 9.75455L9.36908 10.3974L9.3753 10.3911L9.3814 10.3848L8.72634 9.75455ZM8.60818 10.3273L7.72636 10.5478L7.73891 10.598L7.75709 10.6465L8.60818 10.3273ZM8.6809 10.5091L7.81858 10.7966L7.84417 10.8734L7.88292 10.9444L8.6809 10.5091ZM9.52623 11.6727L8.8323 12.26L8.8389 12.2676L9.52623 11.6727ZM10.8442 13.1091L10.1954 13.7457L10.2014 13.7519L10.2075 13.7579L10.8442 13.1091ZM12.2895 14.4455L11.7012 15.1385L11.7024 15.1395L12.2895 14.4455ZM13.4621 15.2818L13.0367 16.0853L13.0796 16.1079L13.1245 16.1259L13.4621 15.2818ZM13.6257 15.3545L13.2676 16.1901L13.2869 16.1984L13.3065 16.2057L13.6257 15.3545ZM14.2256 15.2364L13.5871 14.5893L13.5829 14.5935L14.2256 15.2364ZM14.9164 14.5545L15.5549 15.2016L15.5591 15.1974L14.9164 14.5545ZM15.5709 14.0455L15.9913 14.8515L16.0179 14.8375L16.0434 14.822L15.5709 14.0455ZM17.407 14.3273L17.9332 13.586L17.9257 13.5807L17.9181 13.5755L17.407 14.3273ZM20.4156 16.4636L19.8894 17.205L19.8983 17.2111L20.4156 16.4636ZM20.9156 17.0455L21.7595 16.7078L21.7538 16.6935L21.7475 16.6794L20.9156 17.0455ZM20.152 17.7545C20.152 17.9455 20.11 18.1495 20.0119 18.3573L21.6557 19.1336C21.8666 18.6869 21.97 18.2182 21.97 17.7545H20.152ZM20.0119 18.3573C19.8933 18.6082 19.7423 18.8415 19.5421 19.0623L20.8892 20.2832C21.2163 19.9222 21.4651 19.5373 21.6557 19.1336L20.0119 18.3573ZM19.5425 19.0618C19.1772 19.4645 18.7952 19.7342 18.3803 19.9043L19.0696 21.5866C19.7636 21.3022 20.3634 20.8628 20.8888 20.2836L19.5425 19.0618ZM18.3754 19.9063C17.945 20.0856 17.4734 20.1818 16.9525 20.1818V22C17.7041 22 18.4142 21.8598 19.0746 21.5846L18.3754 19.9063ZM16.9525 20.1818C16.169 20.1818 15.2996 19.9975 14.3456 19.5909L13.6329 21.2636C14.7695 21.748 15.8816 22 16.9525 22V20.1818ZM14.3456 19.5909C13.3699 19.1752 12.3841 18.6108 11.3974 17.8924L10.3274 19.3622C11.4132 20.1528 12.518 20.7885 13.6329 21.2636L14.3456 19.5909ZM11.3986 17.8932C10.3907 17.1569 9.43444 16.341 8.52063 15.4359L7.24139 16.7277C8.21822 17.6954 9.2435 18.5704 10.3263 19.3614L11.3986 17.8932ZM8.52684 15.4421C7.62165 14.528 6.80628 13.5719 6.07983 12.574L4.61016 13.6442C5.39259 14.719 6.26789 15.7447 7.23518 16.7215L8.52684 15.4421ZM6.08289 12.5783C5.36953 11.5864 4.80555 10.6084 4.40003 9.65366L2.72681 10.3645C3.1939 11.4643 3.82976 12.5591 4.60709 13.6399L6.08289 12.5783ZM4.40116 9.65631C4.00312 8.71085 3.81793 7.83999 3.81793 7.03636H2C2 8.12365 2.25111 9.2346 2.72569 10.3619L4.40116 9.65631ZM3.81793 7.03636C3.81793 6.52592 3.90778 6.05041 4.08015 5.61945L2.39224 4.94419C2.1283 5.60414 2 6.31045 2 7.03636H3.81793ZM4.08205 5.61465C4.24824 5.19218 4.51469 4.79341 4.90525 4.4249L3.65775 3.10237C3.08481 3.64296 2.66045 4.26236 2.39034 4.94898L4.08205 5.61465ZM4.91916 4.4115C5.3637 3.97385 5.78053 3.81818 6.17215 3.81818V2C5.2185 2 4.36278 2.40797 3.64385 3.11577L4.91916 4.4115ZM6.17215 3.81818C6.29938 3.81818 6.41834 3.84585 6.51508 3.89229L7.30175 2.25316C6.944 2.08141 6.55394 2 6.17215 2V3.81818ZM6.5275 3.89815C6.6288 3.9449 6.7064 4.00729 6.77008 4.09928L8.26476 3.06435C8.00122 2.68362 7.66069 2.41873 7.28932 2.24731L6.5275 3.89815ZM6.77609 4.10785L8.88489 7.08058L10.3676 6.02851L8.25875 3.05578L6.77609 4.10785ZM8.88857 7.08574C9.01925 7.26726 9.09897 7.41399 9.14851 7.53512L10.8311 6.8467C10.717 6.56783 10.5604 6.29637 10.3639 6.02336L8.88857 7.08574ZM9.15433 7.54902C9.20071 7.65724 9.2081 7.72515 9.2081 7.74545H11.026C11.026 7.4203 10.9425 7.1064 10.8253 6.8328L9.15433 7.54902ZM9.2081 7.74545C9.2081 7.78065 9.19918 7.837 9.14974 7.91823L10.7026 8.86359C10.9077 8.52664 11.026 8.14663 11.026 7.74545H9.2081ZM9.13487 7.94358C9.06747 8.06285 8.95139 8.21655 8.77442 8.39354L10.0599 9.67919C10.3192 9.41982 10.5486 9.13715 10.7175 8.83824L9.13487 7.94358ZM8.7621 8.4061L8.07129 9.12428L9.3814 10.3848L10.0722 9.66663L8.7621 8.4061ZM8.08361 9.11172C7.79909 9.39627 7.67194 9.75227 7.67194 10.1182H9.48988C9.48988 10.1416 9.48587 10.1919 9.46118 10.2542C9.43581 10.3182 9.39982 10.3666 9.36908 10.3974L8.08361 9.11172ZM7.67194 10.1182C7.67194 10.277 7.69325 10.4153 7.72636 10.5478L9.49 10.1068C9.48748 10.0967 9.48792 10.0966 9.48872 10.1026C9.48909 10.1054 9.48942 10.1086 9.48963 10.1118C9.48984 10.115 9.48988 10.1173 9.48988 10.1182H7.67194ZM7.75709 10.6465C7.77868 10.7041 7.80039 10.7546 7.81082 10.7792C7.82433 10.8112 7.82228 10.8077 7.81858 10.7966L9.54321 10.2216C9.52134 10.156 9.49656 10.0979 9.48508 10.0708C9.47051 10.0363 9.46494 10.0232 9.45927 10.0081L7.75709 10.6465ZM7.88292 10.9444C8.08949 11.3232 8.41631 11.7682 8.83234 12.2599L10.2201 11.0855C9.83626 10.6318 9.59953 10.295 9.47888 10.0738L7.88292 10.9444ZM8.8389 12.2676C9.25719 12.751 9.70649 13.2474 10.1954 13.7457L11.4931 12.4725C11.0367 12.0072 10.6133 11.5399 10.2136 11.0778L8.8389 12.2676ZM10.2075 13.7579C10.7057 14.2469 11.1958 14.7093 11.7012 15.1385L12.8778 13.7525C12.4197 13.3635 11.9645 12.9349 11.4809 12.4603L10.2075 13.7579ZM11.7024 15.1395C12.2019 15.5622 12.6483 15.8796 13.0367 16.0853L13.8874 14.4784C13.6577 14.3567 13.3224 14.1287 12.8766 13.7515L11.7024 15.1395ZM13.1245 16.1259C13.1231 16.1254 13.1281 16.1274 13.1583 16.1412C13.1824 16.1522 13.2232 16.1711 13.2676 16.1901L13.9837 14.519C13.9645 14.5107 13.9463 14.5024 13.9158 14.4884C13.8914 14.4772 13.8465 14.4565 13.7996 14.4377L13.1245 16.1259ZM13.3065 16.2057C13.512 16.2828 13.7007 16.3 13.8529 16.3V14.4818C13.8452 14.4818 13.8537 14.4814 13.8721 14.4841C13.892 14.4872 13.9174 14.4931 13.9448 14.5034L13.3065 16.2057ZM13.8529 16.3C14.2614 16.3 14.6072 16.1404 14.8683 15.8792L13.5829 14.5935C13.6025 14.5739 13.6426 14.5407 13.7035 14.5147C13.7654 14.4885 13.8198 14.4818 13.8529 14.4818V16.3ZM14.864 15.8835L15.5549 15.2016L14.2779 13.9075L13.5871 14.5893L14.864 15.8835ZM15.5591 15.1974C15.7496 15.0068 15.8937 14.9024 15.9913 14.8515L15.1504 13.2395C14.8299 13.4067 14.5376 13.6477 14.2737 13.9117L15.5591 15.1974ZM16.0434 14.822C16.128 14.7705 16.1754 14.7636 16.2162 14.7636V12.9455C15.8026 12.9455 15.4319 13.0658 15.0983 13.2689L16.0434 14.822ZM16.2162 14.7636C16.2557 14.7636 16.3208 14.7709 16.4266 14.8141L17.1148 13.1314C16.8207 13.0109 16.5222 12.9455 16.2162 12.9455V14.7636ZM16.4266 14.8141C16.5502 14.8647 16.7023 14.9475 16.8959 15.079L17.9181 13.5755C17.6571 13.398 17.3911 13.2444 17.1148 13.1314L16.4266 14.8141ZM16.8808 15.0685L19.8894 17.2049L20.9418 15.7224L17.9332 13.586L16.8808 15.0685ZM19.8983 17.2111C20.0176 17.2937 20.0609 17.36 20.0836 17.4115L21.7475 16.6794C21.5703 16.2764 21.2863 15.9608 20.933 15.7162L19.8983 17.2111ZM20.0716 17.3831C20.1293 17.5273 20.152 17.6393 20.152 17.7545H21.97C21.97 17.3607 21.8836 17.0182 21.7595 16.7078L20.0716 17.3831Z" fill="#227DDE"/>
</g>
<defs>
<clipPath id="clip0_1_6720">
<rect width="24" height="24" fill="white"/>
</clipPath>
</defs>
</svg>
