<svg width="24" height="24" viewBox="0 0 24 24" fill="none" xmlns="http://www.w3.org/2000/svg">
<path d="M19.8108 14.0656L20.4974 14.1258C20.4992 14.1058 20.5 14.0857 20.5 14.0656H19.8108ZM4.18919 14.0656H3.5C3.5 14.0858 3.50086 14.1058 3.50258 14.1259L4.18919 14.0656ZM12 18.1373C14.5886 18.1373 16.603 17.9742 18.0131 17.4151C18.7348 17.129 19.3333 16.7264 19.7667 16.159C20.2019 15.5892 20.4306 14.9053 20.4974 14.1258L19.1242 14.0053C19.0752 14.5764 18.9175 14.9896 18.6761 15.3056C18.433 15.6241 18.0649 15.8962 17.5105 16.1159C16.3686 16.5686 14.5935 16.7419 12 16.7419V18.1373ZM20.5 14.0656C20.5 13.3118 20.3823 12.7315 20.1934 12.2313C20.0105 11.7468 19.7642 11.3532 19.5667 11.0187C19.3642 10.6755 19.1884 10.3574 19.0565 9.94351C18.925 9.53089 18.8287 8.99432 18.8287 8.228H17.4503C17.4503 9.11764 17.5629 9.80131 17.7447 10.372C17.9261 10.9413 18.1681 11.3695 18.3835 11.7343C18.6039 12.1078 18.7755 12.3839 18.9059 12.7295C19.0305 13.0594 19.1216 13.4697 19.1216 14.0656H20.5ZM18.8287 8.228C18.8287 5.24099 16.0831 2 12 2V3.39535C15.3514 3.39535 17.4503 6.04112 17.4503 8.228H18.8287ZM12 2C7.91688 2 5.17138 5.24099 5.17138 8.228H6.54975C6.54975 6.04112 8.64866 3.39535 12 3.39535V2ZM5.17138 8.228C5.17138 8.99432 5.07502 9.53089 4.94351 9.94351C4.81159 10.3574 4.63578 10.6755 4.43323 11.0187C4.2358 11.3532 3.98949 11.7468 3.80656 12.2313C3.61774 12.7315 3.5 13.3118 3.5 14.0656H4.87838C4.87838 13.4697 4.96956 13.0594 5.09412 12.7295C5.22457 12.3839 5.39611 12.1078 5.61652 11.7343C5.83181 11.3695 6.07386 10.9413 6.2553 10.372C6.43718 9.80131 6.54975 9.11764 6.54975 8.228H5.17138ZM3.50258 14.1259C3.56958 14.9073 3.79829 15.5925 4.23371 16.1631C4.66731 16.7313 5.26617 17.1337 5.98808 17.4192C7.39821 17.9768 9.41261 18.1373 12 18.1373V16.7419C9.40631 16.7419 7.63153 16.571 6.48963 16.1195C5.93553 15.9004 5.56767 15.6287 5.3245 15.3101C5.08314 14.9938 4.92502 14.5794 4.8758 14.0053L3.50258 14.1259Z" fill="#101623"/>
<path d="M14.7071 20.7062C14.9618 20.4199 14.939 19.9787 14.6562 19.7209C14.3733 19.463 13.9376 19.4861 13.6828 19.7724L14.7071 20.7062ZM10.2331 19.773C9.97869 19.4864 9.54294 19.4628 9.25981 19.7204C8.97669 19.9779 8.95341 20.419 9.20781 20.7056L10.2331 19.773ZM13.6828 19.7724C12.7004 20.8767 11.2221 20.8873 10.2331 19.773L9.20781 20.7056C10.7498 22.4428 13.1825 22.4199 14.7071 20.7062L13.6828 19.7724Z" fill="#101623"/>
</svg>
