<svg width="20" height="20" viewBox="0 0 20 20" fill="none" xmlns="http://www.w3.org/2000/svg">
<path d="M14.1939 9.01959V18.4314C14.1935 18.8472 14.0574 19.2459 13.8156 19.5401C13.5736 19.8341 13.2457 19.9995 12.9036 20H3.87131C3.01608 19.9989 2.19615 19.5852 1.59141 18.8501C0.986661 18.1149 0.646486 17.1181 0.645508 16.0784V6.66665C0.645899 6.25077 0.781969 5.85206 1.02387 5.55799C1.26576 5.26392 1.59374 5.0985 1.93583 5.09802H10.9681C11.8233 5.09921 12.6432 5.51276 13.248 6.24794C13.8527 6.98311 14.193 7.97989 14.1939 9.01959ZM19.679 7.1648C19.5813 7.09586 19.4704 7.05933 19.3574 7.05887C19.2444 7.05839 19.1333 7.09399 19.0351 7.16211L15.8093 9.40304C15.7106 9.47163 15.6284 9.57076 15.5713 9.69035C15.5143 9.80994 15.4842 9.94577 15.4842 10.084V15.014C15.4842 15.1522 15.5143 15.2881 15.5713 15.4077C15.6284 15.5272 15.7106 15.6264 15.8093 15.695L19.0351 17.9359C19.1333 18.0041 19.2443 18.0397 19.3574 18.0392C19.4704 18.0387 19.5813 18.0022 19.679 17.9332C19.7768 17.8643 19.8579 17.7653 19.9143 17.6463C19.9706 17.5272 20.0003 17.3923 20.0003 17.2549V7.84312C20.0003 7.70575 19.9707 7.57077 19.9143 7.45173C19.8579 7.33268 19.7768 7.23373 19.679 7.1648Z" fill="#101623"/>
</svg>
