<svg width="32" height="32" viewBox="0 0 32 32" fill="none" xmlns="http://www.w3.org/2000/svg">
<path d="M23.8645 4.57142C22.6016 4.56914 21.3558 4.87735 20.2259 5.47155C19.096 6.06575 18.1134 6.92954 17.356 7.9942C16.3304 6.55641 14.9014 5.49484 13.2716 4.95971C11.6417 4.42459 9.89345 4.443 8.27408 5.01234C6.65472 5.58169 5.24628 6.67314 4.24809 8.13226C3.2499 9.59137 2.71249 11.3442 2.71191 13.1429C2.72055 14.5062 2.94651 15.8584 3.38035 17.1428H9.18225L11.0297 14.2232C11.1288 14.0667 11.263 13.9383 11.4204 13.8495C11.5779 13.7607 11.7537 13.7143 11.9323 13.7143C12.1108 13.7143 12.2867 13.7607 12.4441 13.8495C12.6015 13.9383 12.7357 14.0667 12.8348 14.2232L16.2712 19.6539L17.5382 17.6518C17.6373 17.4952 17.7714 17.3668 17.9288 17.278C18.0863 17.1894 18.2622 17.1428 18.4407 17.1428H21.695C21.9826 17.1428 22.2586 17.2633 22.462 17.4776C22.6654 17.6919 22.7797 17.9826 22.7797 18.2857C22.7797 18.5888 22.6654 18.8795 22.462 19.0938C22.2586 19.3082 21.9826 19.4286 21.695 19.4286H19.0213L17.1737 22.3482C17.0747 22.5048 16.9405 22.6331 16.7831 22.7219C16.6256 22.8107 16.4498 22.8571 16.2712 22.8571C16.0927 22.8571 15.9169 22.8107 15.7593 22.7219C15.6019 22.6331 15.4678 22.5048 15.3687 22.3482L11.9323 16.9175L10.6653 18.9196C10.5663 19.0762 10.432 19.2046 10.2746 19.2934C10.1172 19.3822 9.94134 19.4286 9.76276 19.4286H4.33685C7.95053 26.5443 16.374 31.5876 16.826 31.8543C16.9878 31.9498 17.1704 32 17.356 32C17.5416 32 17.7241 31.9498 17.886 31.8543C20.3759 30.3179 22.7127 28.5215 24.8612 26.4923C29.5982 22.0007 32 17.5092 32 13.1429C31.9976 10.8704 31.1396 8.69167 29.6145 7.08478C28.0893 5.47789 26.0214 4.574 23.8645 4.57142Z" fill="white"/>
</svg>
