<svg width="20" height="20" viewBox="0 0 20 20" fill="none" xmlns="http://www.w3.org/2000/svg">
<path d="M19.1628 14.1452L15.1193 12.3529C14.9082 12.2589 14.6777 12.2211 14.4489 12.2428C14.2199 12.2646 14 12.3452 13.809 12.4774L11.647 13.968C10.3257 13.3033 9.25628 12.2021 8.60779 10.8385L8.60795 10.8383L10.044 8.56885C10.169 8.37183 10.2449 8.14583 10.2648 7.91108C10.2846 7.67634 10.248 7.44014 10.158 7.22364L8.42349 3.03812C8.30543 2.75401 8.10156 2.51709 7.8424 2.36285C7.58324 2.2086 7.28275 2.14533 6.98591 2.1825C5.8195 2.3376 4.74755 2.92659 3.97037 3.83943C3.19318 4.75226 2.76389 5.92651 2.7627 7.14282C2.7627 14.2323 8.33936 20 15.1941 20C16.3702 19.9987 17.5056 19.5547 18.3881 18.7508C19.2707 17.9471 19.8402 16.8384 19.9902 15.632C20.026 15.325 19.9648 15.0143 19.8156 14.7463C19.6665 14.4783 19.4375 14.2674 19.1628 14.1452Z" fill="#101623"/>
</svg>
