<svg width="32" height="32" viewBox="0 0 32 32" fill="none" xmlns="http://www.w3.org/2000/svg">
<path d="M12.1916 27.7094V23.6203C12.1915 22.5841 13.0341 21.7422 14.0779 21.7357H17.9101C18.9585 21.7357 19.8083 22.5794 19.8083 23.6203V27.6976C19.8083 28.5963 20.5387 29.3267 21.4439 29.3332H24.0584C25.2795 29.3364 26.4516 28.857 27.3162 28.0009C28.1807 27.1448 28.6666 25.9823 28.6666 24.77V13.1544C28.6666 12.1751 28.2294 11.2462 27.4728 10.618L18.5906 3.56565C17.038 2.33212 14.8205 2.37197 13.3138 3.66047L4.6226 10.618C3.83024 11.2277 3.35666 12.1594 3.33325 13.1544V24.7581C3.33325 27.2849 5.39643 29.3332 7.94148 29.3332H10.4963C10.9322 29.3364 11.3512 29.1667 11.6606 28.8618C11.9699 28.557 12.1438 28.1421 12.1438 27.7094H12.1916Z" fill="#227DDE"/>
</svg>
