<svg width="32" height="32" viewBox="0 0 32 32" fill="none" xmlns="http://www.w3.org/2000/svg">
<path d="M6.29278 16.9596C5.90226 17.3501 5.90226 17.9832 6.29278 18.3738C6.6833 18.7643 7.31647 18.7643 7.70699 18.3738L6.29278 16.9596ZM5.06689 22.3333H6.06689H5.06689ZM7.70699 18.3738C8.09752 17.9832 8.09752 17.3501 7.70699 16.9596C7.31647 16.569 6.6833 16.569 6.29278 16.9596L7.70699 18.3738ZM7.70699 18.3738L18.3737 7.70712L16.9595 6.29291L6.29278 16.9596L7.70699 18.3738ZM18.3737 7.70712C19.4238 6.65698 20.8481 6.06702 22.3332 6.06702V4.06702C20.3177 4.06702 18.3847 4.86769 16.9595 6.29291L18.3737 7.70712ZM22.3332 6.06702C23.8184 6.06702 25.2426 6.65698 26.2928 7.70712L27.707 6.29291C26.2818 4.86769 24.3488 4.06702 22.3332 4.06702V6.06702ZM26.2928 7.70712C27.3429 8.75726 27.9329 10.1816 27.9329 11.6667H29.9329C29.9329 9.65113 29.1322 7.71812 27.707 6.29291L26.2928 7.70712ZM27.9329 11.6667C27.9329 13.1518 27.3429 14.5761 26.2928 15.6262L27.707 17.0404C29.1322 15.6152 29.9329 13.6822 29.9329 11.6667H27.9329ZM26.2928 15.6262L15.6261 26.2929L17.0403 27.7071L27.707 17.0404L26.2928 15.6262ZM15.6261 26.2929C14.576 27.343 13.1517 27.933 11.6666 27.933V29.933C13.6821 29.933 15.6151 29.1323 17.0403 27.7071L15.6261 26.2929ZM11.6666 27.933C10.1814 27.933 8.75713 27.343 7.70699 26.2929L6.29278 27.7071C7.71799 29.1323 9.651 29.933 11.6666 29.933V27.933ZM7.70699 26.2929C6.65685 25.2427 6.06689 23.8185 6.06689 22.3333H4.06689C4.06689 24.3489 4.86757 26.2819 6.29278 27.7071L7.70699 26.2929ZM6.06689 22.3333C6.06689 20.8482 6.65685 19.4239 7.70699 18.3738L6.29278 16.9596C4.86757 18.3848 4.06689 20.3178 4.06689 22.3333H6.06689Z" fill="#227DDE"/>
<path d="M13.0404 11.6263C12.6498 11.2357 12.0167 11.2357 11.6261 11.6263C11.2356 12.0168 11.2356 12.65 11.6261 13.0405L13.0404 11.6263ZM20.9595 22.3738C21.35 22.7644 21.9832 22.7644 22.3737 22.3738C22.7643 21.9833 22.7643 21.3501 22.3737 20.9596L20.9595 22.3738ZM11.6261 13.0405L20.9595 22.3738L22.3737 20.9596L13.0404 11.6263L11.6261 13.0405Z" fill="#227DDE"/>
</svg>
