<svg width="24" height="24" viewBox="0 0 24 24" fill="none" xmlns="http://www.w3.org/2000/svg">
<path fill-rule="evenodd" clip-rule="evenodd" d="M21.8884 15.8957H17.8404C15.9434 15.8957 14.3994 14.3527 14.3984 12.4567C14.3984 10.5587 15.9424 9.01467 17.8404 9.01367H21.8884C22.3024 9.01367 22.6384 9.34967 22.6384 9.76367C22.6384 10.1777 22.3024 10.5137 21.8884 10.5137H17.8404C16.7694 10.5147 15.8984 11.3857 15.8984 12.4557C15.8984 13.5247 16.7704 14.3957 17.8404 14.3957H21.8884C22.3024 14.3957 22.6384 14.7317 22.6384 15.1457C22.6384 15.5597 22.3024 15.8957 21.8884 15.8957Z" fill="#227DDE"/>
<path fill-rule="evenodd" clip-rule="evenodd" d="M18.2983 13.1436H17.9863C17.5723 13.1436 17.2363 12.8076 17.2363 12.3936C17.2363 11.9796 17.5723 11.6436 17.9863 11.6436H18.2983C18.7123 11.6436 19.0483 11.9796 19.0483 12.3936C19.0483 12.8076 18.7123 13.1436 18.2983 13.1436Z" fill="#227DDE"/>
<path fill-rule="evenodd" clip-rule="evenodd" d="M12.6846 9.03809H7.28564C6.87164 9.03809 6.53564 8.70209 6.53564 8.28809C6.53564 7.87409 6.87164 7.53809 7.28564 7.53809H12.6846C13.0986 7.53809 13.4346 7.87409 13.4346 8.28809C13.4346 8.70209 13.0986 9.03809 12.6846 9.03809Z" fill="#227DDE"/>
</svg>
