<svg width="24" height="24" viewBox="0 0 24 24" fill="none" xmlns="http://www.w3.org/2000/svg">
<path d="M11.9849 14.4019C10.2199 14.4019 8.50487 14.5356 7.21033 14.9789C6.55961 15.2017 5.96468 15.5192 5.52636 15.984C5.07192 16.4658 4.81445 17.077 4.81445 17.8015H6.17242C6.17242 17.4432 6.28871 17.1748 6.50434 16.9462C6.73607 16.7005 7.10751 16.4769 7.64199 16.2939C8.71784 15.9255 10.2486 15.7888 11.9849 15.7888V14.4019ZM4.81445 17.8015C4.81445 18.5244 5.06962 19.136 5.52145 19.6196C5.95763 20.0865 6.55044 20.4071 7.20051 20.6328C8.49353 21.0818 10.2093 21.2205 11.9849 21.2205V19.8335C10.2402 19.8335 8.71022 19.6921 7.63759 19.3197C7.10483 19.1347 6.73483 18.9093 6.5039 18.6621C6.28864 18.4317 6.17242 18.1612 6.17242 17.8015H4.81445ZM11.9849 21.2205C13.7501 21.2205 15.4649 21.0865 16.7592 20.6431C17.4098 20.4202 18.0046 20.1026 18.4428 19.6379C18.8971 19.1562 19.1545 18.5451 19.1545 17.8208H17.7966C17.7966 18.1789 17.6803 18.4471 17.4648 18.6757C17.2331 18.9214 16.8618 19.1451 16.3274 19.3281C15.2518 19.6966 13.7212 19.8335 11.9849 19.8335V21.2205ZM19.1545 17.8208C19.1545 17.0981 18.8994 16.4867 18.4477 16.0031C18.0117 15.5363 17.419 15.2156 16.769 14.9898C15.4762 14.5407 13.7607 14.4019 11.9849 14.4019V15.7888C13.7295 15.7888 15.2594 15.9304 16.3318 16.3029C16.8644 16.488 17.2343 16.7134 17.4652 16.9605C17.6804 17.1909 17.7966 17.4613 17.7966 17.8208H19.1545Z" fill="#ADADAD"/>
<path d="M7.79169 7.72388L8.43834 7.72612V7.72388H7.79169ZM11.9234 11.9737L11.9212 12.6342H11.9234V11.9737ZM11.9527 12.6342C14.6077 12.6342 16.7594 10.4353 16.7594 7.72388H15.4661C15.4661 9.70613 13.8931 11.3133 11.9527 11.3133V12.6342ZM16.7594 7.72388C16.7594 5.01227 14.6076 2.81445 11.9527 2.81445V4.13537C13.8933 4.13537 15.4661 5.7418 15.4661 7.72388H16.7594ZM11.9527 2.81445C9.29795 2.81445 7.14504 5.0121 7.14504 7.72388H8.43834C8.43834 5.74198 10.0119 4.13537 11.9527 4.13537V2.81445ZM7.14505 7.72164C7.13608 10.4251 9.27473 12.625 11.9212 12.6342L11.9255 11.3133C9.9937 11.3066 8.43179 9.70043 8.43834 7.72612L7.14505 7.72164ZM11.9234 12.6342H11.9527V11.3133H11.9234V12.6342Z" fill="#ADADAD"/>
</svg>
