<svg width="21" height="20" viewBox="0 0 21 20" fill="none" xmlns="http://www.w3.org/2000/svg">
<path d="M16.0175 7.68249C16.2464 7.4733 16.2498 7.13106 16.025 6.91808C15.8001 6.70511 15.4324 6.70204 15.2035 6.91123L16.0175 7.68249ZM7.78486 14.4498L8.18848 14.8386L8.1919 14.8354L7.78486 14.4498ZM7.34465 15.4054H6.76378H7.34465ZM8.84763 16.7567V16.2162V16.7567ZM9.91041 16.3609L10.314 16.7497L10.3169 16.747L9.91041 16.3609ZM19.239 7.85661L18.8354 7.46786L18.8325 7.47048L19.239 7.85661ZM17.1135 3.24281V2.70227V3.24281ZM14.988 4.03441L14.5843 3.64567L14.5815 3.64828L14.988 4.03441ZM5.65932 12.5387L6.06294 12.9275L6.06581 12.9248L5.65932 12.5387ZM4.33868 15.4054H3.75781H4.33868ZM8.84763 19.4594V20V19.4594ZM12.036 18.272L11.6326 17.883L11.6323 17.8833L12.036 18.272ZM20.147 11.7399C20.378 11.5326 20.3845 11.1904 20.1618 10.9756C19.9389 10.7607 19.5713 10.7546 19.3404 10.9619L20.147 11.7399ZM15.2035 6.91123L7.37783 14.0642L8.1919 14.8354L16.0175 7.68249L15.2035 6.91123ZM7.38125 14.0611C6.98836 14.4144 6.76378 14.8975 6.76378 15.4054H7.92551C7.92551 15.1964 8.01764 14.9922 8.18847 14.8386L7.38125 14.0611ZM6.76378 15.4054C6.76378 15.9133 6.98836 16.3964 7.38125 16.7496L8.18847 15.9722C8.01764 15.8186 7.92551 15.6142 7.92551 15.4054H6.76378ZM7.38125 16.7496C7.77347 17.1022 8.30129 17.2973 8.84763 17.2973V16.2162C8.59675 16.2162 8.35999 16.1264 8.18847 15.9722L7.38125 16.7496ZM8.84763 17.2973C9.39398 17.2973 9.9218 17.1022 10.314 16.7496L9.5068 15.9722C9.33528 16.1264 9.09852 16.2162 8.84763 16.2162V17.2973ZM10.3169 16.747L19.6455 8.24274L18.8325 7.47048L9.50392 15.9748L10.3169 16.747ZM19.6427 8.24534C19.9766 7.94506 20.2426 7.58757 20.4245 7.19277L19.3568 6.76679C19.2366 7.02781 19.0597 7.26621 18.8354 7.46787L19.6427 8.24534ZM20.4245 7.19277C20.6065 6.79793 20.7003 6.37405 20.7003 5.94551H19.5386C19.5386 6.22682 19.477 6.50583 19.3568 6.76679L20.4245 7.19277ZM20.7003 5.94551C20.7003 5.51697 20.6065 5.09309 20.4245 4.69825L19.3568 5.12422C19.477 5.38518 19.5386 5.6642 19.5386 5.94551H20.7003ZM20.4245 4.69825C20.2426 4.30344 19.9766 3.94595 19.6427 3.64568L18.8354 4.42314C19.0597 4.62481 19.2366 4.86321 19.3568 5.12422L20.4245 4.69825ZM19.6427 3.64568C19.3087 3.34544 18.9134 3.10822 18.4797 2.9467L18.048 3.95038C18.3437 4.0605 18.6111 4.22145 18.8354 4.42314L19.6427 3.64568ZM18.4797 2.9467C18.046 2.78518 17.5818 2.70227 17.1135 2.70227V3.78335C17.4347 3.78335 17.7523 3.84025 18.048 3.95038L18.4797 2.9467ZM17.1135 2.70227C16.6452 2.70227 16.181 2.78518 15.7473 2.9467L16.179 3.95038C16.4747 3.84025 16.7923 3.78335 17.1135 3.78335V2.70227ZM15.7473 2.9467C15.3136 3.10822 14.9183 3.34544 14.5844 3.64568L15.3916 4.42314C15.6159 4.22145 15.8833 4.0605 16.179 3.95038L15.7473 2.9467ZM14.5815 3.64828L5.25283 12.1526L6.06581 12.9248L15.3945 4.42054L14.5815 3.64828ZM5.25571 12.15C4.29909 13.0101 3.75781 14.1807 3.75781 15.4054H4.91954C4.91954 14.4797 5.32836 13.5879 6.06293 12.9275L5.25571 12.15ZM3.75781 15.4054C3.75781 16.63 4.29909 17.8006 5.25571 18.6607L6.06293 17.8833C5.32836 17.2228 4.91954 16.3311 4.91954 15.4054H3.75781ZM5.25571 18.6607C6.21165 19.5202 7.50405 20 8.84763 20V18.9189C7.79951 18.9189 6.79817 18.5443 6.06293 17.8833L5.25571 18.6607ZM8.84763 20C10.1912 20 11.4836 19.5202 12.4396 18.6607L11.6323 17.8833C10.8971 18.5443 9.89576 18.9189 8.84763 18.9189V20ZM12.4393 18.6609L20.147 11.7399L19.3404 10.9619L11.6326 17.883L12.4393 18.6609Z" fill="#ADADAD"/>
</svg>
