<svg width="24" height="24" viewBox="0 0 24 24" fill="none" xmlns="http://www.w3.org/2000/svg">
<path d="M3.56217 3.26099C3.18464 3.19035 2.82562 3.46395 2.76028 3.87209C2.69494 4.28024 2.94801 4.66837 3.32554 4.73901L3.56217 3.26099ZM5.36783 4.36L6.05914 4.29727C6.03273 3.95715 5.79723 3.6792 5.48615 3.62099L5.36783 4.36ZM6.2586 15.833L6.95001 15.7716L6.94991 15.7703L6.2586 15.833ZM7.92358 17.486V16.736H7.92137L7.92358 17.486ZM18.0143 17.486L18.0159 16.736H18.0143V17.486ZM19.6654 15.94L18.9788 15.8326L18.9787 15.8338L19.6654 15.94ZM20.5432 9.382L21.2298 9.48941V9.48934L20.5432 9.382ZM19.4933 7.863L19.5928 7.12074L19.5899 7.12031L19.4933 7.863ZM5.67701 7.099C5.29387 7.09886 4.98317 7.43453 4.98304 7.84875C4.98291 8.26296 5.2934 8.59886 5.67655 8.599L5.67701 7.099ZM3.32554 4.73901L5.24952 5.09901L5.48615 3.62099L3.56217 3.26099L3.32554 4.73901ZM4.67652 4.42273L5.56729 15.8957L6.94991 15.7703L6.05914 4.29727L4.67652 4.42273ZM5.56719 15.8944C5.66806 17.2214 6.69429 18.2402 7.92579 18.236L7.92137 16.736C7.41388 16.7378 6.99159 16.3186 6.95001 15.7716L5.56719 15.8944ZM7.92358 18.236H18.0143V16.736H7.92358V18.236ZM18.0127 18.236C19.1891 18.2388 20.1859 17.3033 20.3521 16.0462L18.9787 15.8338C18.91 16.3527 18.4989 16.7372 18.0159 16.736L18.0127 18.236ZM20.352 16.0474L21.2298 9.48941L19.8566 9.27459L18.9788 15.8326L20.352 16.0474ZM21.2298 9.48934C21.3827 8.34605 20.6487 7.28604 19.5928 7.12074L19.3939 8.60526C19.6922 8.65196 19.8998 8.95195 19.8566 9.27466L21.2298 9.48934ZM19.5899 7.12031C19.5749 7.11821 19.552 7.11568 19.5439 7.11498C19.5388 7.11459 19.5303 7.11404 19.5267 7.11383C19.5196 7.11345 19.5137 7.11324 19.5105 7.11314C19.5039 7.11292 19.4973 7.11278 19.4925 7.11269C19.4821 7.1125 19.4693 7.11234 19.4549 7.1122C19.4254 7.11191 19.384 7.11163 19.3317 7.11137C19.2269 7.11083 19.0754 7.11032 18.8843 7.10982C18.502 7.10882 17.9595 7.10788 17.3104 7.10702C16.0121 7.10528 14.2867 7.10381 12.5633 7.10263C10.8399 7.10144 9.1183 7.10053 7.82759 7.09992C7.18225 7.09962 6.6446 7.09939 6.26829 7.09923C6.08014 7.09916 5.93233 7.0991 5.83154 7.09906C5.78115 7.09904 5.74252 7.09902 5.71649 7.09901C5.70346 7.09901 5.6936 7.09901 5.68699 7.099C5.68368 7.099 5.68119 7.099 5.67952 7.099C5.67868 7.099 5.67806 7.099 5.67764 7.099C5.67744 7.099 5.67728 7.099 5.67717 7.099C5.67707 7.099 5.67701 7.099 5.67678 7.849C5.67655 8.599 5.67659 8.599 5.67671 8.599C5.67681 8.599 5.67696 8.599 5.67718 8.599C5.67759 8.599 5.67822 8.599 5.67905 8.599C5.68072 8.599 5.68321 8.599 5.68651 8.599C5.69312 8.59901 5.70299 8.59901 5.71601 8.59901C5.74204 8.59902 5.78066 8.59904 5.83105 8.59906C5.93182 8.5991 6.07963 8.59916 6.26776 8.59923C6.64405 8.59939 7.18166 8.59962 7.82699 8.59992C9.11764 8.60053 10.8391 8.60144 12.5624 8.60262C14.2857 8.60381 16.0108 8.60528 17.3087 8.60702C17.9577 8.60788 18.4995 8.60882 18.881 8.60981C19.0718 8.61031 19.222 8.61082 19.3252 8.61135C19.3769 8.61162 19.416 8.61188 19.4422 8.61214C19.4555 8.61227 19.4641 8.61238 19.4688 8.61247C19.4714 8.61252 19.4708 8.61252 19.4684 8.61244C19.4674 8.61241 19.4632 8.61227 19.4574 8.61196C19.4544 8.61179 19.4464 8.61127 19.4418 8.61091C19.4341 8.61025 19.4115 8.60776 19.3968 8.60569L19.5899 7.12031Z" fill="#101623"/>
<path d="M13.9657 10.2948C13.5826 10.2948 13.272 10.6306 13.272 11.0448C13.272 11.459 13.5826 11.7948 13.9657 11.7948V10.2948ZM16.5307 11.7948C16.9138 11.7948 17.2245 11.459 17.2245 11.0448C17.2245 10.6306 16.9138 10.2948 16.5307 10.2948V11.7948ZM13.9657 11.7948H16.5307V10.2948H13.9657V11.7948Z" fill="#101623"/>
<path fill-rule="evenodd" clip-rule="evenodd" d="M6.82399 20.2025C7.10242 20.2025 7.32719 20.4465 7.32719 20.7465C7.32719 21.0475 7.10242 21.2915 6.82399 21.2915C6.54557 21.2915 6.3208 21.0475 6.3208 20.7465C6.3208 20.4465 6.54557 20.2025 6.82399 20.2025Z" fill="#101623" stroke="#101623" stroke-width="1.5" stroke-linecap="round" stroke-linejoin="round"/>
<path fill-rule="evenodd" clip-rule="evenodd" d="M17.2581 20.2025C17.5365 20.2025 17.7622 20.4465 17.7622 20.7465C17.7622 21.0475 17.5365 21.2915 17.2581 21.2915C16.9797 21.2915 16.7549 21.0475 16.7549 20.7465C16.7549 20.4465 16.9797 20.2025 17.2581 20.2025Z" fill="#101623" stroke="#101623" stroke-width="1.5" stroke-linecap="round" stroke-linejoin="round"/>
</svg>
