<svg width="32" height="32" viewBox="0 0 32 32" fill="none" xmlns="http://www.w3.org/2000/svg">
<path d="M31 18.4616H30V13.5385C29.9994 12.8859 29.7885 12.2602 29.4135 11.7987C29.0386 11.3373 28.5302 11.0777 28 11.077H26V9.84618C25.9994 9.19357 25.7885 8.5679 25.4135 8.10644C25.0386 7.64497 24.5302 7.38539 24 7.38464H21C20.4698 7.38539 19.9614 7.64497 19.5865 8.10644C19.2115 8.5679 19.0006 9.19357 19 9.84618V18.4616H13V9.84618C12.9994 9.19357 12.7885 8.5679 12.4135 8.10644C12.0386 7.64497 11.5302 7.38539 11 7.38464H8C7.46975 7.38539 6.9614 7.64497 6.58646 8.10644C6.21151 8.5679 6.00061 9.19357 6 9.84618V11.077H4C3.46975 11.0777 2.9614 11.3373 2.58646 11.7987C2.21151 12.2602 2.00061 12.8859 2 13.5385V18.4616H1C0.734784 18.4616 0.48043 18.5912 0.292893 18.822C0.105357 19.0529 0 19.3659 0 19.6923C0 20.0187 0.105357 20.3318 0.292893 20.5626C0.48043 20.7934 0.734784 20.9231 1 20.9231H2V25.8462C2.00061 26.4987 2.21151 27.1245 2.58646 27.5859C2.9614 28.0474 3.46975 28.307 4 28.3077H6V29.5385C6.00061 30.191 6.21151 30.8168 6.58646 31.2782C6.9614 31.7397 7.46975 31.9993 8 32H11C11.5302 31.9993 12.0386 31.7397 12.4135 31.2782C12.7885 30.8168 12.9994 30.191 13 29.5385V20.9231H19V29.5385C19.0006 30.191 19.2115 30.8168 19.5865 31.2782C19.9614 31.7397 20.4698 31.9993 21 32H24C24.5302 31.9993 25.0386 31.7397 25.4135 31.2782C25.7885 30.8168 25.9994 30.191 26 29.5385V28.3077H28C28.5302 28.307 29.0386 28.0474 29.4135 27.5859C29.7885 27.1245 29.9994 26.4987 30 25.8462V20.9231H31C31.2652 20.9231 31.5196 20.7934 31.7071 20.5626C31.8946 20.3318 32 20.0187 32 19.6923C32 19.3659 31.8946 19.0529 31.7071 18.822C31.5196 18.5912 31.2652 18.4616 31 18.4616ZM4 25.8462V13.5385H6V25.8462H4ZM28 25.8462H26V13.5385H28V25.8462Z" fill="white"/>
</svg>
