<svg width="32" height="32" viewBox="0 0 32 32" fill="none" xmlns="http://www.w3.org/2000/svg">
<path d="M28.6731 9.18681C26.7714 6.3149 24.3226 3.85221 22.1781 1.82216C22.0463 1.69739 21.8849 1.60443 21.7075 1.55108C21.5299 1.49773 21.3415 1.48556 21.1581 1.51558C20.9746 1.54561 20.8014 1.61695 20.653 1.72362C20.5046 1.83029 20.3855 1.96918 20.3054 2.1286L15.8181 11.0647L11.1234 8.0967C10.9961 8.01619 10.8532 7.96029 10.7031 7.93221C10.5529 7.90413 10.3984 7.90441 10.2484 7.93304C10.0984 7.96167 9.95578 8.01808 9.82877 8.09905C9.70177 8.18001 9.59285 8.28395 9.50827 8.4049C6.67362 12.457 5.23633 16.1262 5.23633 19.3103C5.23633 22.6759 6.64619 25.9036 9.15577 28.2834C11.6653 30.6631 15.0691 32 18.6181 32C22.1672 32 25.571 30.6631 28.0805 28.2834C30.5901 25.9036 32 22.6759 32 19.3103C32 15.8789 30.9117 12.5675 28.6731 9.18681ZM27.2428 20.5822C26.965 22.3198 26.1082 23.9275 24.7978 25.1703C23.4873 26.413 21.7918 27.2255 19.9595 27.489C19.9002 27.4976 19.8404 27.502 19.7804 27.502C19.4874 27.5017 19.2052 27.3966 18.9904 27.2074C18.7756 27.0184 18.6439 26.7594 18.6216 26.4823C18.5993 26.2053 18.6882 25.9304 18.8703 25.7127C19.0525 25.495 19.3146 25.3504 19.6042 25.3079C20.9424 25.1035 22.1784 24.5043 23.1369 23.5954C24.0953 22.6866 24.7271 21.5144 24.9427 20.2454C24.9661 20.1023 25.019 19.9648 25.0983 19.841C25.1776 19.7171 25.2819 19.6093 25.4052 19.5236C25.5284 19.438 25.6683 19.3762 25.8167 19.3419C25.9652 19.3075 26.1193 19.3012 26.2703 19.3234C26.4214 19.3454 26.5664 19.3955 26.6969 19.4708C26.8275 19.5459 26.9412 19.6449 27.0315 19.7618C27.1218 19.8786 27.1869 20.0113 27.2232 20.1521C27.2594 20.2929 27.2661 20.439 27.2428 20.5822Z" fill="white"/>
</svg>
