<svg width="24" height="24" viewBox="0 0 24 24" fill="none" xmlns="http://www.w3.org/2000/svg">
<path d="M18.1276 22.3636H7.91482V23.9999H18.1276V22.3636ZM7.91482 22.3636C6.50032 22.3636 5.43858 21.9857 4.73389 21.2867C4.03946 20.5979 3.5744 19.4803 3.5744 17.7272H2.04248C2.04248 19.7923 2.59868 21.4019 3.6915 22.4859C4.77404 23.5596 6.26549 23.9999 7.91482 23.9999V22.3636ZM3.5744 17.7272V10.0908H2.04248V17.7272H3.5744ZM3.5744 10.0908C3.5744 8.3377 4.03946 7.22009 4.73389 6.53132C5.43858 5.83234 6.50032 5.45448 7.91482 5.45448V3.81812C6.26549 3.81812 4.77404 4.25844 3.6915 5.33219C2.59868 6.41614 2.04248 8.02581 2.04248 10.0908H3.5744ZM7.91482 5.45448H18.1276V3.81812H7.91482V5.45448ZM18.1276 5.45448C19.5421 5.45448 20.6038 5.83234 21.3086 6.53132C22.0029 7.22009 22.468 8.3377 22.468 10.0908H23.9999C23.9999 8.02581 23.4437 6.41614 22.3509 5.33219C21.2684 4.25844 19.7769 3.81812 18.1276 3.81812V5.45448ZM22.468 10.0908V17.7272H23.9999V10.0908H22.468ZM22.468 17.7272C22.468 19.4803 22.0029 20.5979 21.3086 21.2867C20.6038 21.9857 19.5421 22.3636 18.1276 22.3636V23.9999C19.7769 23.9999 21.2684 23.5596 22.3509 22.4859C23.4437 21.4019 23.9999 19.7923 23.9999 17.7272H22.468Z" fill="#A1A8B0"/>
<path d="M18.6057 11.2756C18.9362 10.9936 18.9901 10.4788 18.7261 10.1257C18.4621 9.77264 17.9802 9.71503 17.6497 9.99704L18.6057 11.2756ZM14.9311 13.3636L15.4081 14.0037L15.4091 14.0029L14.9311 13.3636ZM11.1013 13.3636L10.6223 14.0021L10.6242 14.0037L11.1013 13.3636ZM8.39387 9.99783C8.06375 9.71528 7.58169 9.77208 7.31717 10.1247C7.05265 10.4773 7.10583 10.9923 7.43595 11.2748L8.39387 9.99783ZM17.6497 9.99704L14.4531 12.7243L15.4091 14.0029L18.6057 11.2756L17.6497 9.99704ZM14.454 12.7235C13.6813 13.3806 12.3511 13.3806 11.5784 12.7235L10.6242 14.0037C11.9553 15.1357 14.077 15.1357 15.4081 14.0037L14.454 12.7235ZM11.5802 12.7251L8.39387 9.99783L7.43595 11.2748L10.6223 14.0021L11.5802 12.7251Z" fill="#A1A8B0"/>
</svg>
