<svg width="32" height="32" viewBox="0 0 32 32" fill="none" xmlns="http://www.w3.org/2000/svg">
<rect width="32" height="32" rx="2" fill="#227DDE"/>
<path d="M9.88867 16C9.33639 16 8.88867 16.4477 8.88867 17C8.88867 17.5523 9.33639 18 9.88867 18V16ZM24.1109 18C24.6632 18 25.1109 17.5523 25.1109 17C25.1109 16.4477 24.6632 16 24.1109 16V18ZM9.88867 18H24.1109V16H9.88867V18Z" fill="white"/>
<path d="M18 9.88892C18 9.33663 17.5523 8.88892 17 8.88892C16.4477 8.88892 16 9.33663 16 9.88892H18ZM16 24.1111C16 24.6634 16.4477 25.1111 17 25.1111C17.5523 25.1111 18 24.6634 18 24.1111H16ZM16 9.88892V24.1111H18V9.88892H16Z" fill="white"/>
</svg>
