<svg width="32" height="32" viewBox="0 0 32 32" fill="none" xmlns="http://www.w3.org/2000/svg">
<path d="M12 22.3334C12 23.9902 10.6568 25.3334 9 25.3334V27.3334C11.7614 27.3334 14 25.0948 14 22.3334H12ZM9 25.3334C7.34315 25.3334 6 23.9902 6 22.3334H4C4 25.0948 6.23858 27.3334 9 27.3334V25.3334ZM6 22.3334C6 20.6765 7.34315 19.3334 9 19.3334V17.3334C6.23858 17.3334 4 19.572 4 22.3334H6ZM9 19.3334C10.6568 19.3334 12 20.6765 12 22.3334H14C14 19.572 11.7614 17.3334 9 17.3334V19.3334Z" fill="#227DDE"/>
<path d="M23.9998 26.3333C23.9998 27.2538 23.2536 28 22.3332 28V30C24.3582 30 25.9998 28.3583 25.9998 26.3333H23.9998ZM22.3332 28C21.4127 28 20.6665 27.2538 20.6665 26.3333H18.6665C18.6665 28.3583 20.3081 30 22.3332 30V28ZM20.6665 26.3333C20.6665 25.4128 21.4127 24.6666 22.3332 24.6666V22.6666C20.3081 22.6666 18.6665 24.3082 18.6665 26.3333H20.6665ZM22.3332 24.6666C23.2536 24.6666 23.9998 25.4128 23.9998 26.3333H25.9998C25.9998 24.3082 24.3582 22.6666 22.3332 22.6666V24.6666Z" fill="#227DDE"/>
<path d="M25.3335 11C25.3335 13.7614 23.0949 16 20.3335 16V18C24.1995 18 27.3335 14.866 27.3335 11H25.3335ZM20.3335 16C17.5721 16 15.3335 13.7614 15.3335 11H13.3335C13.3335 14.866 16.4675 18 20.3335 18V16ZM15.3335 11C15.3335 8.23858 17.5721 6 20.3335 6V4C16.4675 4 13.3335 7.13401 13.3335 11H15.3335ZM20.3335 6C23.0949 6 25.3335 8.23858 25.3335 11H27.3335C27.3335 7.13401 24.1995 4 20.3335 4V6Z" fill="#227DDE"/>
</svg>
