<svg width="32" height="32" viewBox="0 0 32 32" fill="none" xmlns="http://www.w3.org/2000/svg">
<path d="M11.9998 23.6667C11.9998 24.5871 11.2536 25.3333 10.3332 25.3333V27.3333C12.3582 27.3333 13.9998 25.6917 13.9998 23.6667H11.9998ZM10.3332 25.3333C9.41269 25.3333 8.6665 24.5871 8.6665 23.6667H6.6665C6.6665 25.6917 8.30813 27.3333 10.3332 27.3333V25.3333ZM8.6665 23.6667C8.6665 22.7462 9.41269 22 10.3332 22V20C8.30813 20 6.6665 21.6416 6.6665 23.6667H8.6665ZM10.3332 22C11.2536 22 11.9998 22.7462 11.9998 23.6667H13.9998C13.9998 21.6416 12.3582 20 10.3332 20V22Z" fill="#227DDE"/>
<path d="M25.3333 23.6667C25.3333 24.5871 24.5871 25.3333 23.6667 25.3333V27.3333C25.6917 27.3333 27.3333 25.6917 27.3333 23.6667H25.3333ZM23.6667 25.3333C22.7462 25.3333 22 24.5871 22 23.6667H20C20 25.6917 21.6416 27.3333 23.6667 27.3333V25.3333ZM22 23.6667C22 22.7462 22.7462 22 23.6667 22V20C21.6416 20 20 21.6416 20 23.6667H22ZM23.6667 22C24.5871 22 25.3333 22.7462 25.3333 23.6667H27.3333C27.3333 21.6416 25.6917 20 23.6667 20V22Z" fill="#227DDE"/>
<path d="M7.66667 24.6666C8.21895 24.6666 8.66667 24.2189 8.66667 23.6666C8.66667 23.1143 8.21895 22.6666 7.66667 22.6666V24.6666ZM5 23.6666H4C4 24.2189 4.44771 24.6666 5 24.6666V23.6666ZM6.33333 7.66663V8.66663V7.66663ZM18.3333 7.66663H19.3333C19.3333 7.11434 18.8856 6.66663 18.3333 6.66663V7.66663ZM18.3333 23.6666V24.6666C18.8856 24.6666 19.3333 24.2189 19.3333 23.6666H18.3333ZM13 22.6666C12.4477 22.6666 12 23.1143 12 23.6666C12 24.2189 12.4477 24.6666 13 24.6666V22.6666ZM21 24.6666C21.5523 24.6666 22 24.2189 22 23.6666C22 23.1143 21.5523 22.6666 21 22.6666V24.6666ZM26.3333 22.6666C25.781 22.6666 25.3333 23.1143 25.3333 23.6666C25.3333 24.2189 25.781 24.6666 26.3333 24.6666V22.6666ZM29 23.6666V24.6666C29.5523 24.6666 30 24.2189 30 23.6666H29ZM29 15.6666H30C30 15.4854 29.9507 15.3075 29.8575 15.1521L29 15.6666ZM18.3333 14.6666C17.781 14.6666 17.3333 15.1143 17.3333 15.6666C17.3333 16.2189 17.781 16.6666 18.3333 16.6666V14.6666ZM18.3333 7.99996C17.781 7.99996 17.3333 8.44767 17.3333 8.99996C17.3333 9.55225 17.781 9.99996 18.3333 9.99996V7.99996ZM25 8.99996L25.8575 8.48546C25.6768 8.18426 25.3513 7.99996 25 7.99996V8.99996ZM7.66667 22.6666H5V24.6666H7.66667V22.6666ZM6 23.6666V8.99996H4V23.6666H6ZM6 8.99996C6 8.91156 6.03512 8.82677 6.09763 8.76426L4.68342 7.35004C4.24583 7.78763 4 8.38112 4 8.99996H6ZM6.09763 8.76426C6.16014 8.70175 6.24493 8.66663 6.33333 8.66663V6.66663C5.71449 6.66663 5.121 6.91246 4.68342 7.35004L6.09763 8.76426ZM6.33333 8.66663H18.3333V6.66663H6.33333V8.66663ZM17.3333 7.66663V23.6666H19.3333V7.66663H17.3333ZM13 24.6666H21V22.6666H13V24.6666ZM26.3333 24.6666H29V22.6666H26.3333V24.6666ZM30 23.6666V15.6666H28V23.6666H30ZM29 14.6666H18.3333V16.6666H29V14.6666ZM18.3333 9.99996H25V7.99996H18.3333V9.99996ZM24.1425 9.51446L28.1425 16.1811L29.8575 15.1521L25.8575 8.48546L24.1425 9.51446ZM18.3333 22.6666H13V24.6666H18.3333V22.6666Z" fill="#227DDE"/>
<path d="M9 13.3333C8.44771 13.3333 8 13.781 8 14.3333C8 14.8856 8.44771 15.3333 9 15.3333V13.3333ZM14.3333 15.3333C14.8856 15.3333 15.3333 14.8856 15.3333 14.3333C15.3333 13.781 14.8856 13.3333 14.3333 13.3333V15.3333ZM12.6667 11.6666C12.6667 11.1143 12.219 10.6666 11.6667 10.6666C11.1144 10.6666 10.6667 11.1143 10.6667 11.6666H12.6667ZM10.6667 17C10.6667 17.5522 11.1144 18 11.6667 18C12.219 18 12.6667 17.5522 12.6667 17H10.6667ZM9 15.3333H14.3333V13.3333H9V15.3333ZM14.3333 13.3333H9V15.3333H14.3333V13.3333ZM10.6667 11.6666V17H12.6667V11.6666H10.6667Z" fill="#227DDE"/>
</svg>
