<svg width="15" height="15" viewBox="0 0 15 15" fill="none" xmlns="http://www.w3.org/2000/svg">
<path d="M2.58803 5.11804C2.22255 5.11804 1.92627 5.41785 1.92627 5.78768C1.92627 6.15752 2.22255 6.45733 2.58803 6.45733V5.11804ZM12.4174 6.45733C12.7829 6.45733 13.0792 6.15752 13.0792 5.78768C13.0792 5.41785 12.7829 5.11804 12.4174 5.11804V6.45733ZM2.58803 6.45733H12.4174V5.11804H2.58803V6.45733Z" fill="#555555"/>
<path d="M9.69692 7.29736C9.33144 7.29736 9.03516 7.59717 9.03516 7.96701C9.03516 8.33684 9.33144 8.63665 9.69692 8.63665V7.29736ZM9.70203 8.63665C10.0675 8.63665 10.3638 8.33684 10.3638 7.96701C10.3638 7.59717 10.0675 7.29736 9.70203 7.29736V8.63665ZM9.69692 8.63665H9.70203V7.29736H9.69692V8.63665Z" fill="#555555"/>
<path d="M7.24965 7.29736C6.88417 7.29736 6.58789 7.59717 6.58789 7.96701C6.58789 8.33684 6.88417 8.63665 7.24965 8.63665V7.29736ZM7.25476 8.63665C7.62025 8.63665 7.91652 8.33684 7.91652 7.96701C7.91652 7.59717 7.62025 7.29736 7.25476 7.29736V8.63665ZM7.24965 8.63665H7.25476V7.29736H7.24965V8.63665Z" fill="#555555"/>
<path d="M4.79751 7.29736C4.43202 7.29736 4.13574 7.59717 4.13574 7.96701C4.13574 8.33684 4.43202 8.63665 4.79751 8.63665V7.29736ZM4.80261 8.63665C5.1681 8.63665 5.46437 8.33684 5.46437 7.96701C5.46437 7.59717 5.1681 7.29736 4.80261 7.29736V8.63665ZM4.79751 8.63665H4.80261V7.29736H4.79751V8.63665Z" fill="#555555"/>
<path d="M9.69692 9.46619C9.33144 9.46619 9.03516 9.766 9.03516 10.1358C9.03516 10.5057 9.33144 10.8055 9.69692 10.8055V9.46619ZM9.70203 10.8055C10.0675 10.8055 10.3638 10.5057 10.3638 10.1358C10.3638 9.766 10.0675 9.46619 9.70203 9.46619V10.8055ZM9.69692 10.8055H9.70203V9.46619H9.69692V10.8055Z" fill="#555555"/>
<path d="M7.24965 9.46619C6.88417 9.46619 6.58789 9.766 6.58789 10.1358C6.58789 10.5057 6.88417 10.8055 7.24965 10.8055V9.46619ZM7.25476 10.8055C7.62025 10.8055 7.91652 10.5057 7.91652 10.1358C7.91652 9.766 7.62025 9.46619 7.25476 9.46619V10.8055ZM7.24965 10.8055H7.25476V9.46619H7.24965V10.8055Z" fill="#555555"/>
<path d="M4.79751 9.46619C4.43202 9.46619 4.13574 9.766 4.13574 10.1358C4.13574 10.5057 4.43202 10.8055 4.79751 10.8055V9.46619ZM4.80261 10.8055C5.1681 10.8055 5.46437 10.5057 5.46437 10.1358C5.46437 9.766 5.1681 9.46619 4.80261 9.46619V10.8055ZM4.79751 10.8055H4.80261V9.46619H4.79751V10.8055Z" fill="#555555"/>
<path d="M10.1365 1.91964C10.1365 1.54981 9.84023 1.25 9.47475 1.25C9.10927 1.25 8.81299 1.54981 8.81299 1.91964H10.1365ZM8.81299 3.75602C8.81299 4.12585 9.10927 4.42566 9.47475 4.42566C9.84023 4.42566 10.1365 4.12585 10.1365 3.75602H8.81299ZM8.81299 1.91964V3.75602H10.1365V1.91964H8.81299Z" fill="#555555"/>
<path d="M5.68144 1.91964C5.68144 1.54981 5.38516 1.25 5.01967 1.25C4.65419 1.25 4.35791 1.54981 4.35791 1.91964H5.68144ZM4.35791 3.75602C4.35791 4.12585 4.65419 4.42566 5.01967 4.42566C5.38516 4.42566 5.68144 4.12585 5.68144 3.75602H4.35791ZM4.35791 1.91964V3.75602H5.68144V1.91964H4.35791Z" fill="#555555"/>
<path d="M12.4632 5.39184L11.8015 5.38978V5.39184H12.4632ZM9.83727 2.13123H5.1678V3.47051H9.83727V2.13123ZM5.1678 2.13123C4.23885 2.13123 3.39965 2.39437 2.78903 2.98174C2.1733 3.57402 1.875 4.41416 1.875 5.39184H3.19853C3.19853 4.69146 3.406 4.23611 3.70091 3.95242C4.00095 3.66382 4.47727 3.47051 5.1678 3.47051V2.13123ZM1.875 5.39184V10.4419H3.19853V5.39184H1.875ZM1.875 10.4419C1.875 11.4296 2.17127 12.2798 2.78441 12.8811C3.39425 13.4793 4.23487 13.75 5.1678 13.75V12.4107C4.48124 12.4107 4.00635 12.2144 3.70553 11.9194C3.40803 11.6276 3.19853 11.1586 3.19853 10.4419H1.875ZM5.1678 13.75H9.83216V12.4107H5.1678V13.75ZM9.83216 13.75C10.7642 13.75 11.6039 13.4852 12.2139 12.8958C12.8286 12.3019 13.125 11.4607 13.125 10.4841H11.8015C11.8015 11.1855 11.5946 11.6424 11.2999 11.9271C11.0006 12.2164 10.5247 12.4107 9.83216 12.4107V13.75ZM13.125 10.4841V5.39184H11.8015V10.4841H13.125ZM13.125 5.3939C13.1279 4.41674 12.833 3.57568 12.218 2.98238C11.6081 2.39407 10.7682 2.13123 9.83727 2.13123V3.47051C10.531 3.47051 11.0066 3.66412 11.3048 3.95178C11.5978 4.23445 11.8036 4.68888 11.8015 5.38978L13.125 5.3939Z" fill="#555555"/>
</svg>
