<svg width="32" height="32" viewBox="0 0 32 32" fill="none" xmlns="http://www.w3.org/2000/svg">
<path d="M5 28C4.44771 28 4 28.4477 4 29C4 29.5523 4.44771 30 5 30V28ZM29 30C29.5523 30 30 29.5523 30 29C30 28.4477 29.5523 28 29 28V30ZM5 30H29V28H5V30Z" fill="#227DDE"/>
<path d="M6.66675 29C6.66675 29.5523 7.11446 30 7.66675 30C8.21903 30 8.66675 29.5523 8.66675 29H6.66675ZM10.3334 5V4V5ZM23.6667 5V4V5ZM25.3334 29C25.3334 29.5523 25.7811 30 26.3334 30C26.8857 30 27.3334 29.5523 27.3334 29H25.3334ZM8.66675 29V7.66667H6.66675V29H8.66675ZM8.66675 7.66667C8.66675 7.22464 8.84234 6.80072 9.15491 6.48816L7.74069 5.07394C7.05306 5.76157 6.66675 6.69421 6.66675 7.66667H8.66675ZM9.15491 6.48816C9.46747 6.17559 9.89139 6 10.3334 6V4C9.36096 4 8.42832 4.38631 7.74069 5.07394L9.15491 6.48816ZM10.3334 6H23.6667V4H10.3334V6ZM23.6667 6C24.1087 6 24.5327 6.17559 24.8452 6.48816L26.2594 5.07394C25.5718 4.38631 24.6392 4 23.6667 4V6ZM24.8452 6.48816C25.1578 6.80072 25.3334 7.22464 25.3334 7.66667H27.3334C27.3334 6.69421 26.9471 5.76157 26.2594 5.07394L24.8452 6.48816ZM25.3334 7.66667V29H27.3334V7.66667H25.3334Z" fill="#227DDE"/>
<path d="M12 29C12 29.5523 12.4477 30 13 30C13.5523 30 14 29.5523 14 29H12ZM15.6667 21V22V21ZM20 29C20 29.5523 20.4477 30 21 30C21.5523 30 22 29.5523 22 29H20ZM14 29V23.6667H12V29H14ZM14 23.6667C14 23.2246 14.1756 22.8007 14.4882 22.4882L13.0739 21.0739C12.3863 21.7616 12 22.6942 12 23.6667H14ZM14.4882 22.4882C14.8007 22.1756 15.2246 22 15.6667 22V20C14.6942 20 13.7616 20.3863 13.0739 21.0739L14.4882 22.4882ZM15.6667 22H18.3333V20H15.6667V22ZM18.3333 22C18.7754 22 19.1993 22.1756 19.5118 22.4882L20.9261 21.0739C20.2384 20.3863 19.3058 20 18.3333 20V22ZM19.5118 22.4882C19.8244 22.8007 20 23.2246 20 23.6667H22C22 22.6942 21.6137 21.7616 20.9261 21.0739L19.5118 22.4882ZM20 23.6667V29H22V23.6667H20Z" fill="#227DDE"/>
<path d="M14.3333 12C13.781 12 13.3333 12.4477 13.3333 13C13.3333 13.5523 13.781 14 14.3333 14V12ZM19.6666 14C20.2189 14 20.6666 13.5523 20.6666 13C20.6666 12.4477 20.2189 12 19.6666 12V14ZM14.3333 14H19.6666V12H14.3333V14Z" fill="#227DDE"/>
<path d="M18 10.3334C18 9.78109 17.5523 9.33337 17 9.33337C16.4477 9.33337 16 9.78109 16 10.3334H18ZM16 15.6667C16 16.219 16.4477 16.6667 17 16.6667C17.5523 16.6667 18 16.219 18 15.6667H16ZM16 10.3334V15.6667H18V10.3334H16Z" fill="#227DDE"/>
</svg>
