<svg width="24" height="24" viewBox="0 0 24 24" fill="none" xmlns="http://www.w3.org/2000/svg">
<path d="M3.56217 3.26099C3.18464 3.19035 2.82562 3.46395 2.76028 3.87209C2.69494 4.28023 2.94801 4.66836 3.32554 4.739L3.56217 3.26099ZM5.36783 4.35999L6.05914 4.29726C6.03273 3.95714 5.79723 3.67919 5.48614 3.62098L5.36783 4.35999ZM6.25859 15.8329L6.95 15.7715L6.9499 15.7702L6.25859 15.8329ZM7.92357 17.4859V16.7359H7.92136L7.92357 17.4859ZM18.0143 17.4859L18.0158 16.7359H18.0143V17.4859ZM19.6654 15.9399L18.9787 15.8325L18.9787 15.8337L19.6654 15.9399ZM20.5432 9.38196L21.2298 9.48936V9.48929L20.5432 9.38196ZM19.4933 7.86297L19.5928 7.12071L19.5899 7.12028L19.4933 7.86297ZM5.67701 7.09897C5.29387 7.09883 4.98316 7.4345 4.98303 7.84872C4.9829 8.26292 5.29339 8.59882 5.67654 8.59896L5.67701 7.09897ZM3.32554 4.739L5.24951 5.099L5.48614 3.62098L3.56217 3.26099L3.32554 4.739ZM4.67652 4.42272L5.56728 15.8956L6.9499 15.7702L6.05914 4.29726L4.67652 4.42272ZM5.56718 15.8943C5.66805 17.2213 6.69429 18.2401 7.92578 18.2359L7.92136 16.7359C7.41387 16.7377 6.99158 16.3185 6.95 15.7715L5.56718 15.8943ZM7.92357 18.2359H18.0143V16.7359H7.92357V18.2359ZM18.0127 18.2359C19.1891 18.2387 20.1859 17.3032 20.3521 16.0461L18.9787 15.8337C18.9099 16.3526 18.4989 16.7371 18.0158 16.7359L18.0127 18.2359ZM20.352 16.0473L21.2298 9.48936L19.8566 9.27455L18.9787 15.8325L20.352 16.0473ZM21.2298 9.48929C21.3827 8.34601 20.6486 7.28601 19.5928 7.12071L19.3939 8.60522C19.6922 8.65192 19.8998 8.95191 19.8566 9.27462L21.2298 9.48929ZM19.5899 7.12028C19.5749 7.11818 19.552 7.11565 19.5439 7.11495C19.5387 7.11456 19.5303 7.11401 19.5267 7.1138C19.5196 7.11342 19.5137 7.11321 19.5105 7.11311C19.5039 7.11289 19.4973 7.11275 19.4925 7.11266C19.4821 7.11247 19.4693 7.11231 19.4548 7.11217C19.4254 7.11188 19.384 7.1116 19.3316 7.11134C19.2268 7.1108 19.0754 7.11029 18.8843 7.10979C18.502 7.10879 17.9595 7.10785 17.3103 7.10699C16.012 7.10525 14.2867 7.10378 12.5633 7.1026C10.8399 7.10141 9.11829 7.1005 7.82758 7.09989C7.18224 7.09959 6.64459 7.09936 6.26829 7.0992C6.08013 7.09913 5.93232 7.09907 5.83153 7.09903C5.78115 7.09901 5.74251 7.09899 5.71648 7.09898C5.70346 7.09898 5.6936 7.09898 5.68699 7.09897C5.68367 7.09897 5.68119 7.09897 5.67951 7.09897C5.67868 7.09897 5.67805 7.09897 5.67763 7.09897C5.67743 7.09897 5.67727 7.09897 5.67716 7.09897C5.67706 7.09897 5.67701 7.09897 5.67677 7.84897C5.67654 8.59896 5.67659 8.59896 5.6767 8.59896C5.6768 8.59896 5.67696 8.59896 5.67717 8.59896C5.67759 8.59896 5.67822 8.59896 5.67905 8.59896C5.68071 8.59896 5.6832 8.59896 5.68651 8.59896C5.69312 8.59897 5.70299 8.59897 5.716 8.59897C5.74203 8.59898 5.78066 8.599 5.83104 8.59902C5.93181 8.59906 6.07962 8.59912 6.26776 8.59919C6.64404 8.59935 7.18166 8.59958 7.82698 8.59988C9.11763 8.60049 10.8391 8.6014 12.5624 8.60258C14.2857 8.60377 16.0108 8.60524 17.3087 8.60698C17.9577 8.60784 18.4995 8.60878 18.881 8.60977C19.0718 8.61027 19.2219 8.61078 19.3252 8.61131C19.3769 8.61158 19.416 8.61184 19.4422 8.6121C19.4555 8.61223 19.4641 8.61234 19.4688 8.61243C19.4714 8.61248 19.4707 8.61248 19.4683 8.6124C19.4673 8.61237 19.4632 8.61223 19.4573 8.61192C19.4544 8.61175 19.4464 8.61123 19.4418 8.61087C19.4341 8.61021 19.4115 8.60772 19.3967 8.60565L19.5899 7.12028Z" fill="#227DDE"/>
<path d="M13.9657 10.2948C13.5826 10.2948 13.272 10.6306 13.272 11.0448C13.272 11.459 13.5826 11.7948 13.9657 11.7948V10.2948ZM16.5307 11.7948C16.9138 11.7948 17.2244 11.459 17.2244 11.0448C17.2244 10.6306 16.9138 10.2948 16.5307 10.2948V11.7948ZM13.9657 11.7948H16.5307V10.2948H13.9657V11.7948Z" fill="#227DDE"/>
<path fill-rule="evenodd" clip-rule="evenodd" d="M6.82399 20.2024C7.10242 20.2024 7.32719 20.4464 7.32719 20.7464C7.32719 21.0474 7.10242 21.2914 6.82399 21.2914C6.54557 21.2914 6.3208 21.0474 6.3208 20.7464C6.3208 20.4464 6.54557 20.2024 6.82399 20.2024Z" fill="#227DDE" stroke="#227DDE" stroke-width="1.5" stroke-linecap="round" stroke-linejoin="round"/>
<path fill-rule="evenodd" clip-rule="evenodd" d="M17.2581 20.2024C17.5365 20.2024 17.7622 20.4464 17.7622 20.7464C17.7622 21.0474 17.5365 21.2914 17.2581 21.2914C16.9797 21.2914 16.7549 21.0474 16.7549 20.7464C16.7549 20.4464 16.9797 20.2024 17.2581 20.2024Z" fill="#227DDE" stroke="#227DDE" stroke-width="1.5" stroke-linecap="round" stroke-linejoin="round"/>
</svg>
