<svg width="18" height="18" viewBox="0 0 18 18" fill="none" xmlns="http://www.w3.org/2000/svg">
<path d="M14.6007 7.34088C14.6305 6.96828 14.3553 6.64188 13.986 6.61184C13.6166 6.5818 13.2931 6.8595 13.2634 7.23209L14.6007 7.34088ZM13.3564 13.7651L12.6897 13.6904L12.6896 13.6906L13.3564 13.7651ZM11.7745 15.2365L11.7866 15.9133H11.7867L11.7745 15.2365ZM6.52222 15.2331L6.53636 14.5565L6.53595 14.5565L6.52222 15.2331ZM4.98658 13.7698L5.6534 13.6955L5.65338 13.6953L4.98658 13.7698ZM5.08036 7.23225C5.05066 6.85965 4.7272 6.58188 4.35787 6.61183C3.98855 6.64179 3.71322 6.96812 3.74292 7.34072L5.08036 7.23225ZM13.9321 7.28648C13.2634 7.23209 13.2634 7.23211 13.2633 7.23214C13.2633 7.23217 13.2633 7.23222 13.2633 7.23228C13.2633 7.23242 13.2633 7.23262 13.2633 7.23289C13.2632 7.23343 13.2632 7.23425 13.2631 7.23534C13.2629 7.23751 13.2627 7.24077 13.2623 7.24509C13.2616 7.25373 13.2606 7.26659 13.2592 7.28347C13.2565 7.31723 13.2525 7.36703 13.2473 7.43112C13.237 7.5593 13.2219 7.74461 13.2032 7.97302C13.1658 8.42986 13.1138 9.0589 13.0551 9.74779C12.9375 11.1285 12.7943 12.74 12.6897 13.6904L14.0233 13.8398C14.13 12.87 14.2745 11.2422 14.3919 9.86366C14.4507 9.17292 14.503 8.54235 14.5405 8.08447C14.5592 7.85552 14.5743 7.66971 14.5846 7.54109C14.5898 7.47679 14.5939 7.42678 14.5966 7.39282C14.598 7.37584 14.599 7.36288 14.5997 7.35415C14.6 7.34978 14.6003 7.34648 14.6005 7.34426C14.6006 7.34315 14.6007 7.34231 14.6007 7.34174C14.6007 7.34146 14.6007 7.34125 14.6007 7.3411C14.6007 7.34103 14.6007 7.34097 14.6007 7.34094C14.6007 7.3409 14.6007 7.34088 13.9321 7.28648ZM12.6896 13.6906C12.6528 14.0265 12.5406 14.2258 12.4161 14.3425C12.2931 14.4578 12.0929 14.5537 11.7623 14.5598L11.7867 15.9133C12.3759 15.9024 12.9164 15.7212 13.3293 15.3343C13.7406 14.9488 13.9595 14.4208 14.0233 13.8396L12.6896 13.6906ZM11.7624 14.5598C10.0196 14.5915 8.2761 14.5935 6.53636 14.5565L6.50807 15.9098C8.26763 15.9473 10.0288 15.9452 11.7866 15.9133L11.7624 14.5598ZM6.53595 14.5565C6.23107 14.5502 6.04194 14.4575 5.9224 14.3425C5.79973 14.2246 5.68937 14.0241 5.6534 13.6955L4.31975 13.8441C4.3824 14.4164 4.59742 14.9385 4.99669 15.3224C5.3991 15.7093 5.92847 15.8979 6.50849 15.9098L6.53595 14.5565ZM5.65338 13.6953C5.5481 12.7364 5.40503 11.1237 5.28778 9.74395C5.22928 9.05553 5.17742 8.42748 5.14017 7.97152C5.12155 7.74356 5.10659 7.55865 5.09629 7.43078C5.09114 7.36684 5.08715 7.31716 5.08445 7.28349C5.0831 7.26666 5.08208 7.25382 5.08139 7.24521C5.08105 7.2409 5.08079 7.23765 5.08061 7.23548C5.08053 7.2344 5.08046 7.23358 5.08042 7.23304C5.0804 7.23277 5.08038 7.23257 5.08037 7.23244C5.08037 7.23237 5.08036 7.23232 5.08036 7.23229C5.08036 7.23226 5.08036 7.23225 4.41164 7.28648C3.74292 7.34072 3.74292 7.34074 3.74292 7.34078C3.74292 7.34082 3.74293 7.34087 3.74293 7.34095C3.74294 7.34109 3.74296 7.3413 3.74298 7.34159C3.74303 7.34215 3.7431 7.34299 3.74318 7.34409C3.74336 7.34631 3.74362 7.34961 3.74397 7.35396C3.74467 7.36267 3.7457 7.3756 3.74706 7.39254C3.74977 7.42641 3.75378 7.4763 3.75895 7.54045C3.76928 7.66877 3.78429 7.85418 3.80295 8.08269C3.84028 8.53969 3.89228 9.16928 3.95093 9.85957C4.06799 11.2372 4.21239 12.8662 4.31978 13.8444L5.65338 13.6953Z" fill="#ADADAD"/>
<path d="M14.8601 5.4396C15.2306 5.4396 15.531 5.13657 15.531 4.76277C15.531 4.38896 15.2306 4.08594 14.8601 4.08594V5.4396ZM3.48338 4.08594C3.11286 4.08594 2.8125 4.38896 2.8125 4.76277C2.8125 5.13657 3.11286 5.4396 3.48338 5.4396V4.08594ZM14.8601 4.08594H3.48338V5.4396H14.8601V4.08594Z" fill="#ADADAD"/>
<path d="M12.6678 5.77811C13.0384 5.77811 13.3387 5.47508 13.3387 5.10128C13.3387 4.72748 13.0384 4.42445 12.6678 4.42445V5.77811ZM11.5844 4.20516L10.9265 4.33779L10.9265 4.33806L11.5844 4.20516ZM11.4213 3.38213L12.0792 3.2495C12.0764 3.23533 12.0731 3.22126 12.0695 3.2073L11.4213 3.38213ZM6.92176 3.38213L6.27365 3.2073C6.26995 3.22126 6.2667 3.23533 6.26389 3.2495L6.92176 3.38213ZM6.75874 4.20516L7.41656 4.33806L7.41661 4.33779L6.75874 4.20516ZM5.67527 4.42445C5.30476 4.42445 5.00439 4.72748 5.00439 5.10128C5.00439 5.47508 5.30476 5.77811 5.67527 5.77811V4.42445ZM12.6678 4.42445C12.4613 4.42445 12.2828 4.27684 12.2422 4.07225L10.9265 4.33806C11.0926 5.17444 11.8211 5.77811 12.6678 5.77811V4.42445ZM12.2422 4.07252L12.0792 3.2495L10.7635 3.51476L10.9265 4.33779L12.2422 4.07252ZM12.0695 3.2073C11.8901 2.53045 11.2826 2.06299 10.5915 2.06299V3.41665C10.6772 3.41665 10.7513 3.47441 10.7732 3.55696L12.0695 3.2073ZM10.5915 2.06299H7.75164V3.41665H10.5915V2.06299ZM7.75164 2.06299C7.06054 2.06299 6.45304 2.53045 6.27365 3.2073L7.56988 3.55696C7.59176 3.47441 7.66586 3.41665 7.75164 3.41665V2.06299ZM6.26389 3.2495L6.10087 4.07252L7.41661 4.33779L7.57963 3.51476L6.26389 3.2495ZM6.10092 4.07225C6.06031 4.27684 5.88179 4.42445 5.67527 4.42445V5.77811C6.52204 5.77811 7.25054 5.17444 7.41656 4.33806L6.10092 4.07225Z" fill="#ADADAD"/>
</svg>
