<svg width="32" height="32" viewBox="0 0 32 32" fill="none" xmlns="http://www.w3.org/2000/svg">
<path d="M3.62695 21H2.62695H3.62695ZM12.9603 31.3334H20.9603V29.3334H12.9603V31.3334ZM20.9603 31.3334C24.3923 31.3334 27.0548 30.6531 28.8341 28.8738C30.6134 27.0945 31.2937 24.432 31.2937 21H29.2937C29.2937 24.2347 28.6406 26.2389 27.4199 27.4596C26.1992 28.6803 24.195 29.3334 20.9603 29.3334V31.3334ZM31.2937 21V13.0001H29.2937V21H31.2937ZM31.2937 13.0001C31.2937 9.56812 30.6134 6.9056 28.8341 5.12631C27.0548 3.34702 24.3923 2.66675 20.9603 2.66675V4.66675C24.195 4.66675 26.1992 5.31982 27.4199 6.54052C28.6406 7.76123 29.2937 9.76538 29.2937 13.0001H31.2937ZM20.9603 2.66675H12.9603V4.66675H20.9603V2.66675ZM12.9603 2.66675C9.52832 2.66675 6.8658 3.34702 5.08651 5.12631C3.30722 6.9056 2.62695 9.56812 2.62695 13.0001H4.62695C4.62695 9.76538 5.28002 7.76123 6.50072 6.54052C7.72143 5.31982 9.72558 4.66675 12.9603 4.66675V2.66675ZM2.62695 13.0001V21H4.62695V13.0001H2.62695ZM2.62695 21C2.62695 24.432 3.30722 27.0945 5.08651 28.8738C6.8658 30.6531 9.52832 31.3334 12.9603 31.3334V29.3334C9.72558 29.3334 7.72143 28.6803 6.50072 27.4596C5.28002 26.2389 4.62695 24.2347 4.62695 21H2.62695Z" fill="#227DDE"/>
<path d="M3.62362 16.9336C3.07134 16.9354 2.62511 17.3846 2.62696 17.9369C2.6288 18.4892 3.078 18.9354 3.63029 18.9336L3.62362 16.9336ZM11.627 17.9069V16.9069L11.6236 16.9069L11.627 17.9069ZM14.1203 19.6002L15.0501 19.2322L15.0488 19.2289L14.1203 19.6002ZM15.6403 23.4402L14.7105 23.8083L14.7119 23.8116L15.6403 23.4402ZM16.8803 23.4402L17.8088 23.8116L17.8107 23.8069L16.8803 23.4402ZM19.9337 15.6936L20.864 16.0603L20.8644 16.0592L19.9337 15.6936ZM21.147 15.6269L22.0313 15.1601L22.0312 15.1598L21.147 15.6269ZM22.5337 18.2536L23.4189 17.7884L23.418 17.7867L22.5337 18.2536ZM30.307 20.6802C30.8593 20.6802 31.307 20.2325 31.307 19.6802C31.307 19.128 30.8593 18.6802 30.307 18.6802V20.6802ZM3.63029 18.9336L11.6303 18.9069L11.6236 16.9069L3.62362 16.9336L3.63029 18.9336ZM11.627 18.9069C11.886 18.9069 12.2238 19.0115 12.5469 19.2309C12.8698 19.4501 13.0939 19.727 13.1918 19.9716L15.0488 19.2289C14.7733 18.5402 14.2508 17.9703 13.6704 17.5763C13.0902 17.1823 12.368 16.9069 11.627 16.9069V18.9069ZM13.1905 19.9683L14.7105 23.8083L16.5701 23.0722L15.0501 19.2322L13.1905 19.9683ZM14.7119 23.8116C14.8277 24.1014 14.9878 24.3918 15.2149 24.6251C15.4464 24.8631 15.801 25.0902 16.2603 25.0902C16.7197 25.0902 17.0742 24.8631 17.3058 24.6251C17.5329 24.3918 17.6929 24.1014 17.8088 23.8116L15.9519 23.0689C15.8944 23.2125 15.8561 23.2471 15.8724 23.2304C15.8931 23.2091 16.0243 23.0902 16.2603 23.0902C16.4963 23.0902 16.6276 23.2091 16.6483 23.2304C16.6645 23.2471 16.6263 23.2125 16.5688 23.0689L14.7119 23.8116ZM17.8107 23.8069L20.864 16.0603L19.0033 15.3269L15.95 23.0736L17.8107 23.8069ZM20.8644 16.0592C20.903 15.9611 20.9251 15.9529 20.8948 15.9827C20.8578 16.0189 20.7456 16.1042 20.5633 16.1138C20.3816 16.1235 20.2621 16.051 20.2229 16.0202C20.1907 15.9948 20.2138 16.0013 20.2628 16.094L22.0312 15.1598C21.7864 14.6965 21.2758 14.0733 20.4574 14.1167C19.6358 14.1602 19.1954 14.838 19.0029 15.3279L20.8644 16.0592ZM20.2627 16.0938L21.6493 18.7204L23.418 17.7867L22.0313 15.1601L20.2627 16.0938ZM21.6484 18.7187C21.9601 19.3118 22.4791 19.7907 23.0222 20.1182C23.5651 20.4456 24.2288 20.6802 24.8937 20.6802V18.6802C24.6785 18.6802 24.3689 18.5948 24.0551 18.4056C23.7415 18.2165 23.5206 17.982 23.4189 17.7885L21.6484 18.7187ZM24.8937 20.6802H30.307V18.6802H24.8937V20.6802Z" fill="#227DDE"/>
</svg>
