<svg width="32" height="32" viewBox="0 0 32 32" fill="none" xmlns="http://www.w3.org/2000/svg">
<g clip-path="url(#clip0_1_7414)">
<path d="M31.7298 6.83152L25.1507 0.239543C24.7903 -0.121514 24.2058 -0.121514 23.8452 0.239543C23.4846 0.600844 23.4846 1.18646 23.8452 1.54752L24.8372 2.54165L19.2896 8.10011L16.1045 4.90882C15.7442 4.54776 15.1597 4.54776 14.7991 4.90882C14.4385 5.27012 14.4385 5.85574 14.7991 6.21679L16.3394 7.76009L7.31885 16.7985C6.79566 17.3225 6.50757 18.0194 6.50757 18.7603C6.50757 19.0712 6.55884 19.3738 6.65625 19.6595L4.7041 21.6152C3.8645 22.4567 3.8645 23.8259 4.7041 24.6674L5.37427 25.3386L0.270264 30.4527C-0.090088 30.8137 -0.090088 31.3993 0.270264 31.7605C0.450684 31.9411 0.686768 32.0313 0.923096 32.0313C1.15918 32.0313 1.39551 31.9411 1.57568 31.7603L6.67969 26.6465L7.34961 27.3179C7.76954 27.7386 8.32105 27.9489 8.87257 27.9489C9.42432 27.9489 9.97584 27.7386 10.3958 27.3179L12.3477 25.362C12.6328 25.4594 12.9348 25.5108 13.2451 25.5108C13.9846 25.5108 14.6802 25.2221 15.2031 24.6982L24.2236 15.66L25.7639 17.2034C25.9444 17.3839 26.1804 17.4743 26.4168 17.4743C26.6529 17.4743 26.8892 17.3841 27.0694 17.2034C27.43 16.8421 27.43 16.2566 27.0694 15.8953L23.8843 12.7041L29.4321 7.14561L30.4241 8.13949C30.6043 8.32002 30.8406 8.41053 31.0767 8.41053C31.313 8.41053 31.5493 8.32027 31.7295 8.13949C32.0901 7.77819 32.0901 7.19282 31.7298 6.83152ZM9.09034 26.0098C9.01197 26.0884 8.92042 26.1001 8.87281 26.1001C8.8252 26.1001 8.73365 26.0884 8.65528 26.0098L6.00977 23.3594C5.88965 23.239 5.88965 23.0436 6.00977 22.9233L7.76246 21.1672L10.843 24.2537L9.09034 26.0098ZM13.8977 23.3902C13.5379 23.7507 12.9526 23.751 12.5925 23.3904L8.62427 19.4144C8.44971 19.2397 8.35377 19.0075 8.35377 18.7603C8.35377 18.5132 8.44971 18.2811 8.62427 18.1064L11.0657 15.66L12.606 17.2034C12.7861 17.3839 13.0225 17.4743 13.2588 17.4743C13.4949 17.4743 13.7312 17.3839 13.9114 17.2034C14.2717 16.8423 14.2717 16.2566 13.9114 15.8953L12.3711 14.352L14.3552 12.364L15.8955 13.9073C16.0757 14.0878 16.312 14.1783 16.5481 14.1783C16.7844 14.1783 17.0208 14.0882 17.2009 13.9073C17.5613 13.5462 17.5613 12.9606 17.2009 12.5993L15.6607 11.0561L17.6445 9.06806L22.9182 14.352L13.8977 23.3902ZM22.5791 11.396L20.595 9.40808L26.1426 3.84962L28.1267 5.83763L22.5791 11.396Z" fill="#227DDE"/>
</g>
<defs>
<clipPath id="clip0_1_7414">
<rect width="32" height="32" fill="white"/>
</clipPath>
</defs>
</svg>
