<svg width="14" height="14" viewBox="0 0 14 14" fill="none" xmlns="http://www.w3.org/2000/svg">
<path d="M10.452 8.35337C10.3009 8.49979 10.2315 8.71154 10.2659 8.9192L10.7845 11.7892C10.8283 12.0325 10.7256 12.2787 10.522 12.4192C10.3225 12.5651 10.0571 12.5826 9.83953 12.4659L7.25595 11.1184C7.16611 11.0705 7.06636 11.0449 6.96428 11.042H6.8062C6.75136 11.0501 6.6977 11.0676 6.6487 11.0945L4.06453 12.4484C3.93678 12.5126 3.79211 12.5353 3.65036 12.5126C3.30503 12.4472 3.07461 12.1182 3.1312 11.7711L3.65036 8.90112C3.68478 8.6917 3.61536 8.47879 3.46428 8.33004L1.35786 6.28837C1.18169 6.11745 1.12044 5.86079 1.20094 5.6292C1.27911 5.3982 1.47861 5.22962 1.71953 5.1917L4.6187 4.77112C4.8392 4.74837 5.03286 4.6142 5.13203 4.41587L6.40953 1.79671C6.43986 1.73837 6.47895 1.68471 6.5262 1.63921L6.5787 1.59837C6.60611 1.56804 6.63761 1.54296 6.67261 1.52254L6.7362 1.49921L6.83536 1.45837H7.08095C7.30028 1.48112 7.49336 1.61237 7.59428 1.80837L8.8887 4.41587C8.98203 4.60662 9.16344 4.73904 9.37286 4.77112L12.272 5.1917C12.517 5.2267 12.7218 5.39587 12.8028 5.6292C12.8793 5.86312 12.8133 6.11979 12.6337 6.28837L10.452 8.35337Z" fill="#FBBC05"/>
</svg>
