<svg width="20" height="20" viewBox="0 0 20 20" fill="none" xmlns="http://www.w3.org/2000/svg">
<path d="M9.62615 3.69067C10.0042 3.69067 10.3107 3.38413 10.3107 3.00598C10.3107 2.62784 10.0042 2.32129 9.62615 2.32129V3.69067ZM17.9849 10.2675C17.9849 9.88938 17.6784 9.58283 17.3003 9.58283C16.9222 9.58283 16.6157 9.88938 16.6157 10.2675H17.9849ZM9.62615 2.32129H6.78209V3.69067H9.62615V2.32129ZM6.78209 2.32129C5.44303 2.32129 4.30318 2.80002 3.50143 3.66032C2.70467 4.51528 2.29199 5.69239 2.29199 7.00687H3.66116C3.66116 5.97665 3.98174 5.15332 4.50299 4.59401C5.01926 4.04004 5.78216 3.69067 6.78209 3.69067V2.32129ZM2.29199 7.00687V13.3319H3.66116V7.00687H2.29199ZM2.29199 13.3319C2.29199 14.6456 2.70245 15.8228 3.49856 16.6781C4.29983 17.539 5.44005 18.0174 6.78209 18.0174V16.6481C5.7783 16.6481 5.01576 16.2984 4.50073 15.7451C3.98054 15.1862 3.66116 14.3629 3.66116 13.3319H2.29199ZM6.78209 18.0174H13.494V16.6481H6.78209V18.0174ZM13.494 18.0174C14.8364 18.0174 15.9768 17.5391 16.7782 16.6782C17.5744 15.8228 17.9849 14.6456 17.9849 13.3319H16.6157C16.6157 14.3629 16.2963 15.1861 15.7761 15.7451C15.261 16.2984 14.4983 16.6481 13.494 16.6481V18.0174ZM17.9849 13.3319V10.2675H16.6157V13.3319H17.9849Z" fill="#227DDE"/>
<path d="M7.59945 9.19255L8.08352 9.6767L7.59945 9.19255ZM13.2838 3.50732L12.7999 3.02291L12.7997 3.02317L13.2838 3.50732ZM15.8479 3.50732L16.332 3.02317L16.3317 3.02291L15.8479 3.50732ZM16.7736 6.99773L16.2898 6.51332L16.2895 6.51358L16.7736 6.99773ZM11.0619 12.7104L11.546 13.1945L11.0619 12.7104ZM7.04493 13.1942L6.36056 13.1771C6.35598 13.3616 6.42604 13.5402 6.55488 13.6723C6.68372 13.8044 6.86042 13.8789 7.04493 13.8789V13.1942ZM7.11643 10.3185L6.43207 10.3012L6.43206 10.3015L7.11643 10.3185ZM8.08352 9.6767L13.7678 3.99147L12.7997 3.02317L7.11537 8.7084L8.08352 9.6767ZM13.7676 3.99173C14.2084 3.55126 14.9232 3.55126 15.3641 3.99173L16.3317 3.02291C15.3563 2.04835 13.7754 2.04835 12.7999 3.02291L13.7676 3.99173ZM15.3638 3.99147L16.2895 4.91733L17.2577 3.94903L16.332 3.02317L15.3638 3.99147ZM16.2895 4.91733C16.7305 5.35836 16.7301 6.07339 16.2898 6.51332L17.2574 7.48214C18.2334 6.50703 18.233 4.92455 17.2577 3.94903L16.2895 4.91733ZM16.2895 6.51358L10.5778 12.2262L11.546 13.1945L17.2577 7.48188L16.2895 6.51358ZM10.5778 12.2262C10.3965 12.4075 10.1507 12.5095 9.89432 12.5095V13.8789C10.5142 13.8789 11.1082 13.6324 11.546 13.1945L10.5778 12.2262ZM9.89432 12.5095H7.04493V13.8789H9.89432V12.5095ZM7.7293 13.2112L7.80081 10.3355L6.43206 10.3015L6.36056 13.1771L7.7293 13.2112ZM7.8008 10.3357C7.80703 10.0882 7.9081 9.85215 8.08352 9.6767L7.11537 8.7084C6.6914 9.13243 6.44713 9.70285 6.43207 10.3012L7.8008 10.3357Z" fill="#227DDE"/>
<path d="M12.904 3.90147C12.6367 3.63408 12.2032 3.63408 11.9359 3.90147C11.6685 4.16886 11.6685 4.60238 11.9359 4.86977L12.904 3.90147ZM15.409 8.34344C15.6763 8.61083 16.1098 8.61083 16.3771 8.34344C16.6445 8.07606 16.6445 7.64253 16.3771 7.37514L15.409 8.34344ZM11.9359 4.86977L15.409 8.34344L16.3771 7.37514L12.904 3.90147L11.9359 4.86977Z" fill="#227DDE"/>
</svg>
