<svg width="24" height="24" viewBox="0 0 24 24" fill="none" xmlns="http://www.w3.org/2000/svg">
<path d="M18.1276 22.3637H7.91482V24.0001H18.1276V22.3637ZM7.91482 22.3637C6.50032 22.3637 5.43858 21.9858 4.73389 21.2869C4.03946 20.5981 3.5744 19.4804 3.5744 17.7273H2.04248C2.04248 19.7924 2.59868 21.4021 3.6915 22.486C4.77404 23.5598 6.26549 24.0001 7.91482 24.0001V22.3637ZM3.5744 17.7273V10.091H2.04248V17.7273H3.5744ZM3.5744 10.091C3.5744 8.33782 4.03946 7.22022 4.73389 6.53144C5.43858 5.83246 6.50032 5.4546 7.91482 5.4546V3.81824C6.26549 3.81824 4.77404 4.25857 3.6915 5.33232C2.59868 6.41626 2.04248 8.02593 2.04248 10.091H3.5744ZM7.91482 5.4546H18.1276V3.81824H7.91482V5.4546ZM18.1276 5.4546C19.5421 5.4546 20.6038 5.83246 21.3086 6.53144C22.0029 7.22022 22.468 8.33782 22.468 10.091H23.9999C23.9999 8.02593 23.4437 6.41626 22.3509 5.33232C21.2684 4.25857 19.7769 3.81824 18.1276 3.81824V5.4546ZM22.468 10.091V17.7273H23.9999V10.091H22.468ZM22.468 17.7273C22.468 19.4804 22.0029 20.5981 21.3086 21.2869C20.6038 21.9858 19.5421 22.3637 18.1276 22.3637V24.0001C19.7769 24.0001 21.2684 23.5598 22.3509 22.486C23.4437 21.4021 23.9999 19.7924 23.9999 17.7273H22.468Z" fill="#227DDE"/>
<path d="M18.6057 11.2757C18.9362 10.9937 18.9901 10.4789 18.7261 10.1258C18.4621 9.77276 17.9802 9.71515 17.6497 9.99716L18.6057 11.2757ZM14.9311 13.3637L15.4081 14.0038L15.4091 14.003L14.9311 13.3637ZM11.1013 13.3637L10.6223 14.0022L10.6242 14.0038L11.1013 13.3637ZM8.39387 9.99796C8.06375 9.7154 7.58169 9.77221 7.31717 10.1248C7.05265 10.4775 7.10583 10.9924 7.43595 11.2749L8.39387 9.99796ZM17.6497 9.99716L14.4531 12.7244L15.4091 14.003L18.6057 11.2757L17.6497 9.99716ZM14.454 12.7236C13.6813 13.3807 12.3511 13.3807 11.5784 12.7236L10.6242 14.0038C11.9553 15.1358 14.077 15.1358 15.4081 14.0038L14.454 12.7236ZM11.5802 12.7252L8.39387 9.99796L7.43595 11.2749L10.6223 14.0022L11.5802 12.7252Z" fill="#227DDE"/>
</svg>
