<svg width="32" height="32" viewBox="0 0 32 32" fill="none" xmlns="http://www.w3.org/2000/svg">
<g clip-path="url(#clip0_1_7446)">
<path d="M30.106 5.85129C29.2537 3.19598 27.4367 1.24723 25.1209 0.504604C20.8514 -0.864521 17.3406 0.895854 16.0003 1.7386C14.6598 0.895792 11.1488 -0.864521 6.87959 0.504604C4.56309 1.24741 2.7459 3.19691 1.89385 5.85323C0.773408 9.34623 1.49697 13.3031 3.82959 16.4379C4.84372 17.801 5.5294 19.3036 5.86753 20.9041C6.01772 21.6153 6.14828 22.3976 6.25553 23.2296C6.57759 25.7282 7.0519 27.7336 7.6654 29.19C8.40028 30.9347 9.34834 31.8769 10.4832 31.9904C10.5478 31.9968 10.6117 32 10.6751 32C11.7921 32 12.7257 30.9975 13.4519 29.016C13.9889 27.5512 14.4121 25.5884 14.6438 23.489C14.7733 22.3151 15.0763 21.3646 15.5198 20.7403C15.6786 20.5168 15.9088 20.4926 16.0003 20.4926C16.0919 20.4926 16.3221 20.5168 16.4809 20.7403C16.9244 21.3646 17.2273 22.3151 17.3568 23.4891C17.5885 25.5884 18.0118 27.5513 18.5487 29.0161C19.2749 30.9976 20.2084 32.0001 21.3255 32.0001C21.3889 32.0001 21.4529 31.9968 21.5174 31.9905C22.6523 31.877 23.6003 30.9348 24.3352 29.1901C24.9486 27.7336 25.423 25.7283 25.7451 23.2297C25.8523 22.3976 25.9829 21.6153 26.133 20.9046C26.4709 19.3053 27.1576 17.8011 28.174 16.434C30.5046 13.2992 31.2268 9.34304 30.106 5.85129ZM26.6731 15.3181C25.4945 16.9034 24.6971 18.6529 24.3031 20.518C24.1426 21.2773 24.0037 22.1092 23.8901 22.9906C23.2345 28.0765 22.0129 30.0396 21.343 30.128C21.2023 30.0782 20.7211 29.6156 20.2037 28.085C19.7652 26.788 19.4144 25.083 19.2159 23.2839C19.0492 21.7731 18.642 20.5529 18.0056 19.6571C17.5453 19.0091 16.7956 18.6223 16.0003 18.6223C15.2049 18.6223 14.4552 19.0091 13.9948 19.6572C13.3584 20.553 12.9513 21.7732 12.7846 23.284C12.586 25.083 12.2353 26.7881 11.7968 28.0851C11.2794 29.6156 10.7981 30.0783 10.6574 30.1281C9.98753 30.0397 8.7659 28.0765 8.11034 22.9907C7.99672 22.1095 7.85778 21.2774 7.69728 20.5177C7.30297 18.6511 6.50647 16.9029 5.32997 15.3216C3.35703 12.67 2.73834 9.34404 3.67478 6.4246C4.3401 4.35042 5.71634 2.84185 7.45065 2.28573C9.28154 1.69854 11.1695 1.73616 13.062 2.39741C14.5075 2.90254 15.4146 3.60123 15.4213 3.60648L15.9989 4.05804L16.5769 3.60823C16.5859 3.60123 17.4929 2.90254 18.9384 2.39741C20.8309 1.7361 22.7188 1.69854 24.5498 2.28573C26.2836 2.84166 27.6597 4.34966 28.3252 6.42298C29.2619 9.34129 28.6443 12.6666 26.6731 15.3181Z" fill="#227DDE"/>
</g>
<defs>
<clipPath id="clip0_1_7446">
<rect width="32" height="32" fill="white"/>
</clipPath>
</defs>
</svg>
