<svg width="36" height="36" viewBox="0 0 36 36" fill="none" xmlns="http://www.w3.org/2000/svg">
<circle cx="18" cy="18" r="18" fill="#EDF5FC"/>
<path d="M11.2521 14.9658C10.8756 14.9658 10.5703 15.2739 10.5703 15.6539C10.5703 16.0339 10.8756 16.342 11.2521 16.342V14.9658ZM24.7551 16.342C25.1316 16.342 25.4369 16.0339 25.4369 15.6539C25.4369 15.2739 25.1316 14.9658 24.7551 14.9658V16.342ZM11.2521 16.342H24.7551V14.9658H11.2521V16.342Z" fill="#227DDE"/>
<path d="M21.0178 17.9517C20.6412 17.9517 20.3359 18.2597 20.3359 18.6397C20.3359 19.0197 20.6412 19.3278 21.0178 19.3278V17.9517ZM21.0248 19.3278C21.4013 19.3278 21.7066 19.0197 21.7066 18.6397C21.7066 18.2597 21.4013 17.9517 21.0248 17.9517V19.3278ZM21.0178 19.3278H21.0248V17.9517H21.0178V19.3278Z" fill="#227DDE"/>
<path d="M17.6564 17.9517C17.2799 17.9517 16.9746 18.2597 16.9746 18.6397C16.9746 19.0197 17.2799 19.3278 17.6564 19.3278V17.9517ZM17.6634 19.3278C18.04 19.3278 18.3453 19.0197 18.3453 18.6397C18.3453 18.2597 18.04 17.9517 17.6634 17.9517V19.3278ZM17.6564 19.3278H17.6634V17.9517H17.6564V19.3278Z" fill="#227DDE"/>
<path d="M14.2873 17.9517C13.9107 17.9517 13.6055 18.2597 13.6055 18.6397C13.6055 19.0197 13.9107 19.3278 14.2873 19.3278V17.9517ZM14.2943 19.3278C14.6709 19.3278 14.9761 19.0197 14.9761 18.6397C14.9761 18.2597 14.6709 17.9517 14.2943 17.9517V19.3278ZM14.2873 19.3278H14.2943V17.9517H14.2873V19.3278Z" fill="#227DDE"/>
<path d="M21.0178 20.9231C20.6412 20.9231 20.3359 21.2312 20.3359 21.6112C20.3359 21.9912 20.6412 22.2992 21.0178 22.2992V20.9231ZM21.0248 22.2992C21.4013 22.2992 21.7066 21.9912 21.7066 21.6112C21.7066 21.2312 21.4013 20.9231 21.0248 20.9231V22.2992ZM21.0178 22.2992H21.0248V20.9231H21.0178V22.2992Z" fill="#227DDE"/>
<path d="M17.6564 20.9231C17.2799 20.9231 16.9746 21.2312 16.9746 21.6112C16.9746 21.9912 17.2799 22.2992 17.6564 22.2992V20.9231ZM17.6634 22.2992C18.04 22.2992 18.3453 21.9912 18.3453 21.6112C18.3453 21.2312 18.04 20.9231 17.6634 20.9231V22.2992ZM17.6564 22.2992H17.6634V20.9231H17.6564V22.2992Z" fill="#227DDE"/>
<path d="M14.2873 20.9231C13.9107 20.9231 13.6055 21.2312 13.6055 21.6112C13.6055 21.9912 13.9107 22.2992 14.2873 22.2992V20.9231ZM14.2943 22.2992C14.6709 22.2992 14.9761 21.9912 14.9761 21.6112C14.9761 21.2312 14.6709 20.9231 14.2943 20.9231V22.2992ZM14.2873 22.2992H14.2943V20.9231H14.2873V22.2992Z" fill="#227DDE"/>
<path d="M21.3939 10.3547C21.3939 9.97469 21.0886 9.66663 20.7121 9.66663C20.3355 9.66663 20.0303 9.97469 20.0303 10.3547H21.3939ZM20.0303 12.8706C20.0303 13.2506 20.3355 13.5587 20.7121 13.5587C21.0886 13.5587 21.3939 13.2506 21.3939 12.8706H20.0303ZM20.0303 10.3547V12.8706H21.3939V10.3547H20.0303Z" fill="#227DDE"/>
<path d="M15.2748 10.3547C15.2748 9.97469 14.9695 9.66663 14.5929 9.66663C14.2164 9.66663 13.9111 9.97469 13.9111 10.3547H15.2748ZM13.9111 12.8706C13.9111 13.2506 14.2164 13.5587 14.5929 13.5587C14.9695 13.5587 15.2748 13.2506 15.2748 12.8706H13.9111ZM13.9111 10.3547V12.8706H15.2748V10.3547H13.9111Z" fill="#227DDE"/>
<path d="M24.8182 15.1117L24.1363 15.1096V15.1117H24.8182ZM21.2108 10.8739H14.7962V12.25H21.2108V10.8739ZM14.7962 10.8739C13.561 10.8739 12.4704 11.2225 11.685 11.976C10.8942 12.7346 10.5 13.8197 10.5 15.1117H11.8636C11.8636 14.1047 12.1642 13.4149 12.6245 12.9734C13.09 12.5268 13.8066 12.25 14.7962 12.25V10.8739ZM10.5 15.1117V22.0304H11.8636V15.1117H10.5ZM10.5 22.0304C10.5 23.3371 10.8921 24.4368 11.6802 25.2076C12.4649 25.9751 13.5569 26.3333 14.7962 26.3333V24.9571C13.8107 24.9571 13.0955 24.6755 12.6292 24.2194C12.1663 23.7666 11.8636 23.0588 11.8636 22.0304H10.5ZM14.7962 26.3333H21.2038V24.9571H14.7962V26.3333ZM21.2038 26.3333C22.443 26.3333 23.5341 25.9825 24.3187 25.2265C25.1082 24.4657 25.5 23.3791 25.5 22.0882H24.1363C24.1363 23.0963 23.8368 23.7881 23.377 24.2312C22.9124 24.6788 22.1963 24.9571 21.2038 24.9571V26.3333ZM25.5 22.0882V15.1117H24.1363V22.0882H25.5ZM25.5 15.1138C25.5039 13.8224 25.1141 12.7363 24.3244 11.9767C23.5402 11.2221 22.4489 10.8739 21.2108 10.8739V12.25C22.2044 12.25 22.9203 12.5272 23.3835 12.9727C23.8414 13.4132 24.1394 14.102 24.1363 15.1096L25.5 15.1138Z" fill="#227DDE"/>
</svg>
