<svg width="32" height="32" viewBox="0 0 32 32" fill="none" xmlns="http://www.w3.org/2000/svg">
<path d="M12.1913 27.7094V23.6203C12.1913 22.5841 13.0339 21.7422 14.0776 21.7357H17.9098C18.9582 21.7357 19.808 22.5794 19.808 23.6203V27.6976C19.808 28.5963 20.5384 29.3267 21.4436 29.3332H24.0581C25.2792 29.3364 26.4513 28.857 27.3159 28.0009C28.1804 27.1448 28.6663 25.9823 28.6663 24.77V13.1544C28.6663 12.1751 28.2291 11.2462 27.4725 10.618L18.5903 3.56565C17.0377 2.33212 14.8202 2.37197 13.3135 3.66047L4.62236 10.618C3.83 11.2277 3.35641 12.1594 3.33301 13.1544V24.7581C3.33301 27.2849 5.39619 29.3332 7.94124 29.3332H10.4961C10.9319 29.3364 11.351 29.1667 11.6603 28.8618C11.9696 28.557 12.1436 28.1421 12.1436 27.7094H12.1913Z" fill="#227DDE"/>
</svg>
