<svg width="15" height="15" viewBox="0 0 15 15" fill="none" xmlns="http://www.w3.org/2000/svg">
<path d="M11.9535 7.50037C11.9535 9.96017 9.9598 11.9539 7.5 11.9539V13.2816C10.6931 13.2816 13.2812 10.6935 13.2812 7.50037H11.9535ZM7.5 11.9539C5.0402 11.9539 3.0465 9.96017 3.0465 7.50037H1.71875C1.71875 10.6935 4.3069 13.2816 7.5 13.2816V11.9539ZM3.0465 7.50037C3.0465 5.04057 5.0402 3.04687 7.5 3.04687V1.71912C4.3069 1.71912 1.71875 4.30727 1.71875 7.50037H3.0465ZM7.5 3.04687C9.9598 3.04687 11.9535 5.04057 11.9535 7.50037H13.2812C13.2812 4.30727 10.6931 1.71912 7.5 1.71912V3.04687Z" fill="#555555"/>
<path d="M9.05787 9.6983C9.37275 9.88615 9.78028 9.78316 9.96813 9.46828C10.156 9.1534 10.053 8.74587 9.73811 8.55803L9.05787 9.6983ZM7.31231 7.88395H6.64844C6.64844 8.11775 6.77142 8.33431 6.9722 8.45409L7.31231 7.88395ZM7.97619 5.20245C7.97619 4.8358 7.67896 4.53857 7.31231 4.53857C6.94566 4.53857 6.64844 4.8358 6.64844 5.20245H7.97619ZM9.73811 8.55803L7.65243 7.31382L6.9722 8.45409L9.05787 9.6983L9.73811 8.55803ZM7.97619 7.88395V5.20245H6.64844V7.88395H7.97619Z" fill="#555555"/>
</svg>
