<svg width="21" height="20" viewBox="0 0 21 20" fill="none" xmlns="http://www.w3.org/2000/svg">
<path d="M16.017 7.68261C16.2459 7.47342 16.2493 7.13118 16.0245 6.9182C15.7996 6.70523 15.4319 6.70216 15.203 6.91135L16.017 7.68261ZM7.78437 14.4499L8.18799 14.8387L8.19141 14.8356L7.78437 14.4499ZM7.34416 15.4055H6.7633H7.34416ZM8.84715 16.7569V16.2163V16.7569ZM9.90992 16.3611L10.3135 16.7498L10.3164 16.7471L9.90992 16.3611ZM19.2385 7.85673L18.8349 7.46798L18.832 7.4706L19.2385 7.85673ZM17.113 3.24293V2.70239V3.24293ZM14.9875 4.03453L14.5839 3.64579L14.581 3.6484L14.9875 4.03453ZM5.65883 12.5388L6.06245 12.9276L6.06532 12.925L5.65883 12.5388ZM4.33819 15.4055H3.75732H4.33819ZM8.84715 19.4596V20.0001V19.4596ZM12.0355 18.2721L11.6321 17.8831L11.6319 17.8834L12.0355 18.2721ZM20.1465 11.74C20.3775 11.5327 20.384 11.1905 20.1613 10.9757C19.9385 10.7609 19.5708 10.7548 19.3399 10.962L20.1465 11.74ZM15.203 6.91135L7.37734 14.0643L8.19141 14.8356L16.017 7.68261L15.203 6.91135ZM7.38077 14.0612C6.98787 14.4145 6.7633 14.8976 6.7633 15.4055H7.92502C7.92502 15.1965 8.01715 14.9923 8.18798 14.8387L7.38077 14.0612ZM6.7633 15.4055C6.7633 15.9134 6.98787 16.3965 7.38077 16.7497L8.18798 15.9723C8.01715 15.8187 7.92502 15.6144 7.92502 15.4055H6.7633ZM7.38077 16.7497C7.77298 17.1024 8.3008 17.2974 8.84715 17.2974V16.2163C8.59626 16.2163 8.3595 16.1265 8.18798 15.9723L7.38077 16.7497ZM8.84715 17.2974C9.3935 17.2974 9.92132 17.1024 10.3135 16.7497L9.50631 15.9723C9.33479 16.1265 9.09803 16.2163 8.84715 16.2163V17.2974ZM10.3164 16.7471L19.645 8.24286L18.832 7.4706L9.50343 15.9749L10.3164 16.7471ZM19.6422 8.24546C19.9761 7.94518 20.2421 7.58769 20.4241 7.19289L19.3563 6.76691C19.2361 7.02793 19.0593 7.26633 18.8349 7.46799L19.6422 8.24546ZM20.4241 7.19289C20.606 6.79805 20.6999 6.37417 20.6999 5.94563H19.5381C19.5381 6.22694 19.4766 6.50595 19.3563 6.76691L20.4241 7.19289ZM20.6999 5.94563C20.6999 5.51709 20.606 5.09321 20.4241 4.69837L19.3563 5.12434C19.4766 5.38531 19.5381 5.66432 19.5381 5.94563H20.6999ZM20.4241 4.69837C20.2421 4.30356 19.9761 3.94607 19.6422 3.6458L18.8349 4.42327C19.0593 4.62493 19.2361 4.86333 19.3563 5.12434L20.4241 4.69837ZM19.6422 3.6458C19.3082 3.34556 18.9129 3.10835 18.4792 2.94682L18.0475 3.95051C18.3432 4.06063 18.6106 4.22157 18.8349 4.42327L19.6422 3.6458ZM18.4792 2.94682C18.0455 2.78531 17.5813 2.70239 17.113 2.70239V3.78347C17.4342 3.78347 17.7519 3.84037 18.0475 3.95051L18.4792 2.94682ZM17.113 2.70239C16.6447 2.70239 16.1805 2.78531 15.7469 2.94682L16.1785 3.95051C16.4742 3.84037 16.7918 3.78347 17.113 3.78347V2.70239ZM15.7469 2.94682C15.3131 3.10835 14.9178 3.34556 14.5839 3.6458L15.3911 4.42327C15.6154 4.22157 15.8828 4.06063 16.1785 3.95051L15.7469 2.94682ZM14.581 3.6484L5.25234 12.1527L6.06532 12.925L15.394 4.42066L14.581 3.6484ZM5.25522 12.1501C4.2986 13.0102 3.75732 14.1809 3.75732 15.4055H4.91905C4.91905 14.4798 5.32787 13.588 6.06244 12.9276L5.25522 12.1501ZM3.75732 15.4055C3.75732 16.6302 4.2986 17.8007 5.25522 18.6608L6.06244 17.8834C5.32787 17.2229 4.91905 16.3312 4.91905 15.4055H3.75732ZM5.25522 18.6608C6.21116 19.5203 7.50356 20.0001 8.84715 20.0001V18.919C7.79902 18.919 6.79768 18.5444 6.06244 17.8834L5.25522 18.6608ZM8.84715 20.0001C10.1907 20.0001 11.4831 19.5203 12.4391 18.6608L11.6319 17.8834C10.8966 18.5444 9.89527 18.919 8.84715 18.919V20.0001ZM12.4388 18.6611L20.1465 11.74L19.3399 10.962L11.6321 17.8831L12.4388 18.6611Z" fill="#ADADAD"/>
</svg>
