<svg width="24" height="24" viewBox="0 0 24 24" fill="none" xmlns="http://www.w3.org/2000/svg">
<path d="M14.4871 8.96733L15.0656 9.54587C15.3851 9.22635 15.3851 8.70831 15.0656 8.38879L14.4871 8.96733ZM8.96705 14.4873L8.38851 15.0659C8.70803 15.3854 9.22608 15.3854 9.5456 15.0659L8.96705 14.4873ZM13.9085 8.38879L8.38851 13.9088L9.5456 15.0659L15.0656 9.54587L13.9085 8.38879ZM9.5456 13.9088C8.98294 13.3461 8.63978 12.5806 8.63978 11.7273H7.00342C7.00342 13.034 7.53299 14.2103 8.38851 15.0659L9.5456 13.9088ZM8.63978 11.7273C8.63978 10.0192 10.0189 8.64006 11.7271 8.64006V7.00369C9.11519 7.00369 7.00342 9.11546 7.00342 11.7273H8.63978ZM11.7271 8.64006C12.5804 8.64006 13.3459 8.98321 13.9085 9.54587L15.0656 8.38879C14.2101 7.53326 13.0338 7.00369 11.7271 7.00369V8.64006Z" fill="#A1A8B0"/>
<path d="M17.5835 5.58408C17.9442 5.85618 18.4572 5.78433 18.7294 5.42357C19.0015 5.06282 18.9296 4.54979 18.5688 4.27767L17.5835 5.58408ZM1.78892 8.90178L2.47858 9.342L2.47927 9.34092L1.78892 8.90178ZM1.78892 14.5636L2.47896 14.124L2.47858 14.1234L1.78892 14.5636ZM4.2118 18.6421C4.5544 18.9367 5.07099 18.8979 5.36562 18.5552C5.66025 18.2127 5.62137 17.696 5.27877 17.4015L4.2118 18.6421ZM18.5688 4.27767C16.5331 2.74208 14.1812 1.88724 11.7271 1.88724V3.5236C13.7894 3.5236 15.8011 4.23966 17.5835 5.58408L18.5688 4.27767ZM11.7271 1.88724C7.52912 1.88724 3.70686 4.36229 1.09857 8.46265L2.47927 9.34092C4.86735 5.58673 8.22327 3.5236 11.7271 3.5236V1.88724ZM1.09926 8.46157C0.504258 9.39374 0.234375 10.5881 0.234375 11.7327C0.234375 12.8773 0.504258 14.0716 1.09926 15.0038L2.47858 14.1234C2.09176 13.5174 1.87074 12.6499 1.87074 11.7327C1.87074 10.8155 2.09176 9.94801 2.47858 9.342L1.09926 8.46157ZM1.09888 15.0032C2.00022 16.418 3.05535 17.6476 4.2118 18.6421L5.27877 17.4015C4.2534 16.5196 3.30126 15.4146 2.47896 14.124L1.09888 15.0032Z" fill="#A1A8B0"/>
<path d="M8.13931 19.1879C7.72285 19.0124 7.2431 19.2079 7.06775 19.6244C6.8924 20.0408 7.08785 20.5206 7.50431 20.6959L8.13931 19.1879ZM21.6654 14.5528L20.9758 14.1126L20.9751 14.1137L21.6654 14.5528ZM21.6654 8.89099L20.9747 9.3294L20.9758 9.33121L21.6654 8.89099ZM21.1466 6.77455C20.8634 6.42245 20.3484 6.36661 19.9962 6.64982C19.6442 6.93303 19.5884 7.44806 19.8716 7.80016L21.1466 6.77455ZM7.50431 20.6959C8.84162 21.2591 10.2692 21.5674 11.7273 21.5674V19.931C10.5017 19.931 9.28927 19.672 8.13931 19.1879L7.50431 20.6959ZM11.7273 21.5674C15.9252 21.5674 19.7475 19.0923 22.3558 14.9919L20.9751 14.1137C18.587 17.8679 15.2311 19.931 11.7273 19.931V21.5674ZM22.3551 14.993C22.9501 14.0609 23.22 12.8665 23.22 11.7219C23.22 10.5773 22.9501 9.38295 22.3551 8.45078L20.9758 9.33121C21.3626 9.93722 21.5836 10.8047 21.5836 11.7219C21.5836 12.6391 21.3626 13.5066 20.9758 14.1126L22.3551 14.993ZM22.3562 8.45259C21.9768 7.85469 21.5654 7.29521 21.1466 6.77455L19.8716 7.80016C20.26 8.28314 20.6341 8.79276 20.9747 9.3294L22.3562 8.45259Z" fill="#A1A8B0"/>
<path d="M16.3609 12.6394C16.4429 12.195 16.1491 11.7683 15.7047 11.6864C15.2603 11.6044 14.8336 11.8982 14.7517 12.3426L16.3609 12.6394ZM12.3316 14.7627C11.8872 14.8447 11.5934 15.2714 11.6753 15.7157C11.7573 16.1601 12.1839 16.4539 12.6283 16.372L12.3316 14.7627ZM14.7517 12.3426C14.5296 13.5472 13.5361 14.5406 12.3316 14.7627L12.6283 16.372C14.5002 16.0268 16.0158 14.5112 16.3609 12.6394L14.7517 12.3426Z" fill="#A1A8B0"/>
<path d="M9.54581 15.0659C9.86533 14.7463 9.86533 14.2283 9.54581 13.9088C9.2263 13.5892 8.70825 13.5892 8.38873 13.9088L9.54581 15.0659ZM0.23964 22.0579C-0.0798799 22.3774 -0.0798799 22.8954 0.23964 23.2149C0.559159 23.5345 1.0772 23.5345 1.39672 23.2149L0.23964 22.0579ZM8.38873 13.9088L0.23964 22.0579L1.39672 23.2149L9.54581 15.0659L8.38873 13.9088Z" fill="#A1A8B0"/>
<path d="M23.2148 1.39672C23.5343 1.0772 23.5343 0.559159 23.2148 0.23964C22.8952 -0.0798799 22.3772 -0.0798799 22.0577 0.23964L23.2148 1.39672ZM13.9086 8.38873C13.5891 8.70825 13.5891 9.2263 13.9086 9.54581C14.2281 9.86533 14.7461 9.86533 15.0657 9.54581L13.9086 8.38873ZM22.0577 0.23964L13.9086 8.38873L15.0657 9.54581L23.2148 1.39672L22.0577 0.23964Z" fill="#A1A8B0"/>
</svg>
