<svg width="24" height="24" viewBox="0 0 24 24" fill="none" xmlns="http://www.w3.org/2000/svg">
<path fill-rule="evenodd" clip-rule="evenodd" d="M15.7161 16.9736H8.49609C8.08209 16.9736 7.74609 16.6376 7.74609 16.2236C7.74609 15.8096 8.08209 15.4736 8.49609 15.4736H15.7161C16.1301 15.4736 16.4661 15.8096 16.4661 16.2236C16.4661 16.6376 16.1301 16.9736 15.7161 16.9736Z" fill="#227DDE"/>
<path fill-rule="evenodd" clip-rule="evenodd" d="M15.7156 12.7874H8.49561C8.08161 12.7874 7.74561 12.4514 7.74561 12.0374C7.74561 11.6234 8.08161 11.2874 8.49561 11.2874H15.7156C16.1296 11.2874 16.4656 11.6234 16.4656 12.0374C16.4656 12.4514 16.1296 12.7874 15.7156 12.7874Z" fill="#227DDE"/>
<path fill-rule="evenodd" clip-rule="evenodd" d="M11.2506 8.61035H8.49561C8.08161 8.61035 7.74561 8.27435 7.74561 7.86035C7.74561 7.44635 8.08161 7.11035 8.49561 7.11035H11.2506C11.6646 7.11035 12.0006 7.44635 12.0006 7.86035C12.0006 8.27435 11.6646 8.61035 11.2506 8.61035Z" fill="#227DDE"/>
</svg>
