<svg width="32" height="32" viewBox="0 0 32 32" fill="none" xmlns="http://www.w3.org/2000/svg">
<path d="M5 28C4.44771 28 4 28.4477 4 29C4 29.5523 4.44771 30 5 30V28ZM29 30C29.5523 30 30 29.5523 30 29C30 28.4477 29.5523 28 29 28V30ZM5 30H29V28H5V30Z" fill="#227DDE"/>
<path d="M6.66699 29C6.66699 29.5523 7.11471 30 7.66699 30C8.21928 30 8.66699 29.5523 8.66699 29H6.66699ZM10.3337 5V4V5ZM23.667 5V4V5ZM25.3337 29C25.3337 29.5523 25.7814 30 26.3337 30C26.886 30 27.3337 29.5523 27.3337 29H25.3337ZM8.66699 29V7.66667H6.66699V29H8.66699ZM8.66699 7.66667C8.66699 7.22464 8.84258 6.80072 9.15515 6.48816L7.74093 5.07394C7.0533 5.76157 6.66699 6.69421 6.66699 7.66667H8.66699ZM9.15515 6.48816C9.46771 6.17559 9.89163 6 10.3337 6V4C9.3612 4 8.42857 4.38631 7.74093 5.07394L9.15515 6.48816ZM10.3337 6H23.667V4H10.3337V6ZM23.667 6C24.109 6 24.533 6.17559 24.8455 6.48816L26.2597 5.07394C25.5721 4.38631 24.6395 4 23.667 4V6ZM24.8455 6.48816C25.1581 6.80072 25.3337 7.22464 25.3337 7.66667H27.3337C27.3337 6.69421 26.9474 5.76157 26.2597 5.07394L24.8455 6.48816ZM25.3337 7.66667V29H27.3337V7.66667H25.3337Z" fill="#227DDE"/>
<path d="M12 29C12 29.5523 12.4477 30 13 30C13.5523 30 14 29.5523 14 29H12ZM15.6667 21V22V21ZM20 29C20 29.5523 20.4477 30 21 30C21.5523 30 22 29.5523 22 29H20ZM14 29V23.6667H12V29H14ZM14 23.6667C14 23.2246 14.1756 22.8007 14.4882 22.4882L13.0739 21.0739C12.3863 21.7616 12 22.6942 12 23.6667H14ZM14.4882 22.4882C14.8007 22.1756 15.2246 22 15.6667 22V20C14.6942 20 13.7616 20.3863 13.0739 21.0739L14.4882 22.4882ZM15.6667 22H18.3333V20H15.6667V22ZM18.3333 22C18.7754 22 19.1993 22.1756 19.5118 22.4882L20.9261 21.0739C20.2384 20.3863 19.3058 20 18.3333 20V22ZM19.5118 22.4882C19.8244 22.8007 20 23.2246 20 23.6667H22C22 22.6942 21.6137 21.7616 20.9261 21.0739L19.5118 22.4882ZM20 23.6667V29H22V23.6667H20Z" fill="#227DDE"/>
<path d="M14.333 12C13.7807 12 13.333 12.4477 13.333 13C13.333 13.5523 13.7807 14 14.333 14V12ZM19.6663 14C20.2186 14 20.6663 13.5523 20.6663 13C20.6663 12.4477 20.2186 12 19.6663 12V14ZM14.333 14H19.6663V12H14.333V14Z" fill="#227DDE"/>
<path d="M18 10.3334C18 9.78109 17.5523 9.33337 17 9.33337C16.4477 9.33337 16 9.78109 16 10.3334H18ZM16 15.6667C16 16.219 16.4477 16.6667 17 16.6667C17.5523 16.6667 18 16.219 18 15.6667H16ZM16 10.3334V15.6667H18V10.3334H16Z" fill="#227DDE"/>
</svg>
