<svg width="20" height="20" viewBox="0 0 20 20" fill="none" xmlns="http://www.w3.org/2000/svg">
<path d="M14.1934 9.01971V18.4315C14.193 18.8474 14.0569 19.246 13.8151 19.5402C13.5731 19.8342 13.2452 19.9996 12.9031 20.0001H3.87083C3.01559 19.999 2.19566 19.5854 1.59092 18.8502C0.986173 18.115 0.645998 17.1182 0.64502 16.0785V6.66677C0.645411 6.25089 0.781481 5.85218 1.02338 5.55811C1.26528 5.26404 1.59325 5.09862 1.93534 5.09814H10.9676C11.8228 5.09933 12.6427 5.51288 13.2476 6.24806C13.8522 6.98323 14.1925 7.98001 14.1934 9.01971ZM19.6785 7.16492C19.5808 7.09599 19.4699 7.05946 19.3569 7.05899C19.2439 7.05851 19.1328 7.09412 19.0346 7.16223L15.8088 9.40316C15.7101 9.47175 15.6279 9.57088 15.5709 9.69047C15.5138 9.81006 15.4837 9.94589 15.4837 10.0842V15.0141C15.4837 15.1524 15.5138 15.2882 15.5709 15.4078C15.6279 15.5274 15.7101 15.6265 15.8088 15.6951L19.0346 17.936C19.1328 18.0042 19.2438 18.0398 19.3569 18.0393C19.4699 18.0388 19.5808 18.0023 19.6785 17.9333C19.7763 17.8644 19.8574 17.7654 19.9138 17.6464C19.9701 17.5273 19.9999 17.3924 19.9999 17.255V7.84324C19.9999 7.70587 19.9702 7.57089 19.9138 7.45185C19.8574 7.3328 19.7763 7.23385 19.6785 7.16492Z" fill="#101623"/>
</svg>
